<mxfile host="Electron" modified="2024-01-04T00:23:42.687Z" agent="Mozilla/5.0 (Windows NT 10.0; Win64; x64) AppleWebKit/537.36 (KHTML, like Gecko) draw.io/21.7.5 Chrome/114.0.5735.289 Electron/25.8.1 Safari/537.36" etag="_zmnLqbJMH101rlYuegJ" version="21.7.5" type="device">
  <diagram name="Page-1" id="RBe4kKmWxrb9Rina0VuJ">
    <mxGraphModel dx="2578" dy="2660" grid="1" gridSize="10" guides="1" tooltips="1" connect="1" arrows="1" fold="1" page="1" pageScale="1" pageWidth="827" pageHeight="1169" background="none" math="0" shadow="1">
      <root>
        <mxCell id="0" />
        <mxCell id="1" parent="0" />
        <mxCell id="Mw_88Z8rka56BvABdyxa-1" value="" style="endArrow=none;html=1;rounded=0;strokeWidth=2;shadow=0;shape=link;" parent="1" edge="1">
          <mxGeometry width="50" height="50" relative="1" as="geometry">
            <mxPoint y="-1120" as="sourcePoint" />
            <mxPoint x="827" y="-1120" as="targetPoint" />
          </mxGeometry>
        </mxCell>
        <mxCell id="Mw_88Z8rka56BvABdyxa-2" value="&lt;span&gt;&lt;font style=&quot;font-size: 20px;&quot;&gt;Laser Dimensions&lt;/font&gt;&lt;/span&gt;" style="text;align=left;html=1;verticalAlign=middle;rounded=0;shadow=0;glass=0;labelBorderColor=none;labelBackgroundColor=none;whiteSpace=wrap;fontStyle=1" parent="1" vertex="1">
          <mxGeometry x="6" y="-1155" width="328" height="30" as="geometry" />
        </mxCell>
        <mxCell id="Mw_88Z8rka56BvABdyxa-4" value="&lt;span&gt;&lt;font style=&quot;font-size: 20px;&quot;&gt;Laser Pointer&lt;/font&gt;&lt;/span&gt;" style="text;align=right;html=1;verticalAlign=middle;rounded=0;shadow=0;glass=0;labelBorderColor=none;labelBackgroundColor=none;whiteSpace=wrap;fontStyle=1" parent="1" vertex="1">
          <mxGeometry x="620" y="-1155" width="201.81" height="30" as="geometry" />
        </mxCell>
        <mxCell id="Mw_88Z8rka56BvABdyxa-8" value="" style="endArrow=none;html=1;rounded=0;strokeWidth=2;shadow=0;shape=link;endSize=6;startSize=6;" parent="1" edge="1">
          <mxGeometry width="50" height="50" relative="1" as="geometry">
            <mxPoint y="-50" as="sourcePoint" />
            <mxPoint x="827" y="-50" as="targetPoint" />
          </mxGeometry>
        </mxCell>
        <mxCell id="Mw_88Z8rka56BvABdyxa-9" value="&lt;div style=&quot;&quot;&gt;Body Back Edge (1) &amp;amp; Front Cap Fillet : 2 mm | Centering Supports (2) Height : 0.5 mm&lt;span style=&quot;background-color: initial;&quot;&gt;&lt;br&gt;&lt;/span&gt;&lt;/div&gt;&lt;div style=&quot;&quot;&gt;Front Cap Holder (3) Depth : 3 mm | Front Cap Support (4) Height : 2.9 mm&lt;/div&gt;" style="text;strokeColor=none;align=left;fillColor=none;html=1;verticalAlign=middle;whiteSpace=wrap;rounded=0;" parent="1" vertex="1">
          <mxGeometry x="4" y="-40" width="466" height="30" as="geometry" />
        </mxCell>
        <mxCell id="Mw_88Z8rka56BvABdyxa-12" value="The button should have a small indentation for an easier touch&lt;br&gt;&amp;nbsp;" style="text;strokeColor=none;align=left;fillColor=none;html=1;verticalAlign=middle;whiteSpace=wrap;rounded=0;" parent="1" vertex="1">
          <mxGeometry x="484" y="-40" width="346" height="30" as="geometry" />
        </mxCell>
        <mxCell id="Mw_88Z8rka56BvABdyxa-13" value="" style="endArrow=none;html=1;rounded=0;strokeWidth=1;" parent="1" edge="1">
          <mxGeometry width="50" height="50" relative="1" as="geometry">
            <mxPoint x="475" y="-4" as="sourcePoint" />
            <mxPoint x="475" y="-42" as="targetPoint" />
          </mxGeometry>
        </mxCell>
        <mxCell id="Mw_88Z8rka56BvABdyxa-16" value="" style="shape=image;verticalLabelPosition=bottom;verticalAlign=top;imageAspect=0;image=data:image/png,iVBORw0KGgoAAAANSUhEUgAAAO8AAAC3CAYAAAD6rQkjAAAACXBIWXMAAC4jAAAuIwF4pT92AAAF8WlUWHRYTUw6Y29tLmFkb2JlLnhtcAAAAAAAPD94cGFja2V0IGJlZ2luPSLvu78iIGlkPSJXNU0wTXBDZWhpSHpyZVN6TlRjemtjOWQiPz4gPHg6eG1wbWV0YSB4bWxuczp4PSJhZG9iZTpuczptZXRhLyIgeDp4bXB0az0iQWRvYmUgWE1QIENvcmUgNi4wLWMwMDUgNzkuMTY0NTkwLCAyMDIwLzEyLzA5LTExOjU3OjQ0ICAgICAgICAiPiA8cmRmOlJERiB4bWxuczpyZGY9Imh0dHA6Ly93d3cudzMub3JnLzE5OTkvMDIvMjItcmRmLXN5bnRheC1ucyMiPiA8cmRmOkRlc2NyaXB0aW9uIHJkZjphYm91dD0iIiB4bWxuczp4bXA9Imh0dHA6Ly9ucy5hZG9iZS5jb20veGFwLzEuMC8iIHhtbG5zOnhtcE1NPSJodHRwOi8vbnMuYWRvYmUuY29tL3hhcC8xLjAvbW0vIiB4bWxuczpzdEV2dD0iaHR0cDovL25zLmFkb2JlLmNvbS94YXAvMS4wL3NUeXBlL1Jlc291cmNlRXZlbnQjIiB4bWxuczpkYz0iaHR0cDovL3B1cmwub3JnL2RjL2VsZW1lbnRzLzEuMS8iIHhtbG5zOnBob3Rvc2hvcD0iaHR0cDovL25zLmFkb2JlLmNvbS9waG90b3Nob3AvMS4wLyIgeG1wOkNyZWF0b3JUb29sPSJBZG9iZSBQaG90b3Nob3AgMjIuMSAoV2luZG93cykiIHhtcDpDcmVhdGVEYXRlPSIyMDIzLTA1LTExVDE5OjQ1OjM0KzAzOjAwIiB4bXA6TWV0YWRhdGFEYXRlPSIyMDIzLTA1LTExVDE5OjQ1OjM0KzAzOjAwIiB4bXA6TW9kaWZ5RGF0ZT0iMjAyMy0wNS0xMVQxOTo0NTozNCswMzowMCIgeG1wTU06SW5zdGFuY2VJRD0ieG1wLmlpZDplODQ5MDM1MS0xYmYzLWU5NDctYjk2Mi0yNjJjZmY4N2QyODEiIHhtcE1NOkRvY3VtZW50SUQ9ImFkb2JlOmRvY2lkOnBob3Rvc2hvcDpiODE5Y2M1Zi1mNDQxLTkwNDctOTlkYy0yOWMwNzJlYjVlMzQiIHhtcE1NOk9yaWdpbmFsRG9jdW1lbnRJRD0ieG1wLmRpZDo5NmNmM2JkNy1iNzJjLTUyNGQtOGRiZC04MGNmMmNiZDA5MWEiIGRjOmZvcm1hdD0iaW1hZ2UvcG5nIiBwaG90b3Nob3A6Q29sb3JNb2RlPSIzIiBwaG90b3Nob3A6SUNDUHJvZmlsZT0ic1JHQiBJRUM2MTk2Ni0yLjEiPiA8eG1wTU06SGlzdG9yeT4gPHJkZjpTZXE+IDxyZGY6bGkgc3RFdnQ6YWN0aW9uPSJjcmVhdGVkIiBzdEV2dDppbnN0YW5jZUlEPSJ4bXAuaWlkOjk2Y2YzYmQ3LWI3MmMtNTI0ZC04ZGJkLTgwY2YyY2JkMDkxYSIgc3RFdnQ6d2hlbj0iMjAyMy0wNS0xMVQxOTo0NTozNCswMzowMCIgc3RFdnQ6c29mdHdhcmVBZ2VudD0iQWRvYmUgUGhvdG9zaG9wIDIyLjEgKFdpbmRvd3MpIi8+IDxyZGY6bGkgc3RFdnQ6YWN0aW9uPSJzYXZlZCIgc3RFdnQ6aW5zdGFuY2VJRD0ieG1wLmlpZDplODQ5MDM1MS0xYmYzLWU5NDctYjk2Mi0yNjJjZmY4N2QyODEiIHN0RXZ0OndoZW49IjIwMjMtMDUtMTFUMTk6NDU6MzQrMDM6MDAiIHN0RXZ0OnNvZnR3YXJlQWdlbnQ9IkFkb2JlIFBob3Rvc2hvcCAyMi4xIChXaW5kb3dzKSIgc3RFdnQ6Y2hhbmdlZD0iLyIvPiA8L3JkZjpTZXE+IDwveG1wTU06SGlzdG9yeT4gPC9yZGY6RGVzY3JpcHRpb24+IDwvcmRmOlJERj4gPC94OnhtcG1ldGE+IDw/eHBhY2tldCBlbmQ9InIiPz6GNQXxAAAn8UlEQVR4nO2deZxcVZn3v7e7ekt30tkDhCRA2AKEsIQo8IKAgCOL6Os2yoyKIyjO6MwoijqIzvjiMoL7BgQFdByVURRFQcc4wiCb7GEVyIIJBLOSTjrpper943dP33Nv36q63V1V91bV+X0+9Um6q6rr1jn3d579ebxCoYCDQ6Xged4CoAVY5e6t6qIl7QtwaDj0ANOA1rQvpNHhyOtQMXie1wrsDRwI9KZ8OQ0PR16HSqIbEfdooC3la2l45NK+AIfGgOd5APOBlwEzAS/VC2oCOPI6VAptwCIkdftwWl3V4RbYoVKYDiwD9gDagcF0L6fx4cjrUCnMBY4FJiHiDqV7OY0PR16HCcOTwXsIcDAyxfqBgVQvqgngyOtQCXQB/weFh/LAizjJW3U48jpMCL6XeX+kMrcilflpHHmrDkdeh0rgFcBC//87gHuB4fQupzngyOswUcwAzkCOKg+pzHelekVNAkdeh3HDV5lPBJYi4g4BDwDPu6KE6iNTSRr+zWCjE9gLqWSzUPpdG7KtPKSaDQE7gS3AOmA1sBUYuXvcjVRZWPs0FXgrivECbAduwqnMNUFq5I0QtQPFCRch58d8YIH/u1nAZOTRbCUgrkEBOUl2o8yeF4H1wFrkOHnM87yHgE3IE6o3OUJXAqcBpyANroDW+7ZUr6iJUFPyWoRtRZk4h6J0uiP9/++JSsrMdSXNj+3w3zcDkd4w00jlF4CngD8CdwD3e563FSg4Eo8bc4G/Q+V/ALuAH6HD06EG8Gpx8/qk9VDC+uHAychDeTDa/Baqn8heQOpcH7AKkfjnyLmyHUfkRPD3sgO4GPgI0ogAHkeOq9XgNJtaoGrkjajFc4HTgTcBRyEJOZZi7QKBNLX/9fxHi/X7pIdAHoU1HgduQbbaw0Ryct1NGIa/rycAy1H5H0i7uQT4MpB3a1YbVJS8EcJ2Ixv2HOD/AvuhE7sUuQxJjQ27A9iMnFFb/Z/7/OdAB0A3UpmnIsfJNP/nTqR+J1HBB4HnEYmvBe7DT+9zN6Jg7e0M4GrgNWj988AfgDci88StWY1QDfJ2AYuBvwZeC8yjtG2dR2TcBjwLrASeANYgx9OLyNm0g+JZOx6KM04D5iB7em+klh8KHIBuuq4E17IFOV2uB273f256aWKpyx8APk6gLm8G3gbcDI64tURFyOtvbCuStG/1H3tTXDUeRsnrq4C70cm9EhF2C5UrJ2tF+bamNcsxKAf3QGAKInJcrDuPJP3/AN8Bfo8kftPaxZ7ntQPnAZ8hcFINIPX5IrSfjrw1xITIa6lSc5B6/H5EjLgWKAUkYf+MSHEL8CBSV/ux4rKj3pjwGmPixFG0IafZgSi54FSkJUwmXiIPI6n/K3ST3oUl/ZvhRrXW9HTgm8j8AR1wDwLnIk0JaI41yQrGTN4IQbpQds37kKexO+YtBUTOlSiU8GvkkewjhrDV2PwipM4hIi8BzkQ353xkK0ffMAw8B/wHUqefAYab4Ub1PK8FeBVwBXAQgaayHu37TcBQM6xF1jAR8k5FTooPo9M4qn7mUezvbuB7SPVch6Rv6ENrtfElJHMHsC9KOngzksbdjFb7dwOPAV9HN+3GRtWjrbU6AfgSisWbX/Yhu/dq5ItwEjcFjIm8Vrx2EfDPyLadFHlZAdlC96LN/R1SjUPOpqxsdoTQrSgd83ikDh6PbGb7YCqguPAtwL+hUFMesvOdJoLIeixBB9WxBGuwC/kBPob8Ag3xvesRicgb2dAjkNPilYy2bfPICfVN4KcoRXHE+ZTFTS4hjacBxyEnzclI07BJPIwOpatRfHObeSKL3zMpLOfjqcDlyFtvFmkQ+DHStp4z76nn71vXKBQKZR8+upBT6hF04xasRx4F6m9A0qqbmLhqks9K61EC0/3v/UvgJf+72t99N3JkvY7IYZb2dxrn9/eQ/b8y8j0HgF8g86KlXr9nIz2SbmgHyo5aHXPzDiMJexHKTR4VHkr7S455UeIxB7gAuJ/AbrcPry3Itj/crEHa32Mc33kK8EFgQ2SfB9DhdYhN3LSvudkfSTZ0EvBOpCbZG5pHatQK4CSU1VTXpC3y/W20Io/rZ9BBNhgh8RAyG/4VVUNleh0iWAR8myAKYPa4H6nKBxE5mNO+/mZ/lNvUduAtyLaLSpp+4PvIM9vR6JsaQRdy4lyH4sBRM2I38rK/Jctr46MbmQUmhm1/jx3ANaieujWL36GZH7EOK8uJcyJKTjgg8pI+4ErgKyj8Eyq+jvubjYAY51YvCi+9D2VvdVnPGa/0b4HPA/fgr1Pa62M5pRYD5yOTaKb1kjxKe/wCcshthPSv2yGMUeS1wkEHoFP3eALnUwE5bS5DyQp/oYHCJOVQxDPtoaqpdyDzIprLPYxu/p8jMjxJCk0BYqq83oCIa9Rh84IhVFT/aXTN2/Dj8s2wx/WEYuTdF0mL1xE4KArIo/zvwNeQg6ZpNzWGyO2o3PHdwFmMnlE7jIosfovipLdTgzBa5DpnoGyp89FoEjtGbzLhbkWH8yO4yqpMI0Ref6MnAR8CPkrYXtsJfA6pyy/iekQBsSSegsyNC1F2Ujfh0EoeSeIViMS/o8Ikjrmm2aiE7+0oTh91Lg4h8+cLwH8ijWoEzby/WUYceU9AObzzrNcNIufMx/B7QbkNDaMEYd6FwkfRnOk8sokfBX6G0i3/hOU/GMsax3z+JJRk8kaUZDKfiPPMv4aXUL7511Ad887xfL5D9WEJ1xnA+hHy+k9MB74FvJ5AWuSBO1GM8wmayMYdDyIk8oB9UDOCt6FqpmhDggI6HDej9b0flUjeg6ThKPu4RKHFIhS2OxYdGAvQZkfTO40JdC/SpFYQadBnf55DerD2uhvtaS+6Lx7xCoWC7aR6PfIuTvXfUEAq8gWoLG4Q3KaWQhFitSI/wjmoScHBjCaVwTAKNW1CsfVVqEPFNv/3w2ivOv3HbIJum3MI2uPGXcgwCv88hFT236Aw4LikvUN1YN1DLagW/eXIR7EA+F9k2rxok3cuUo1PIdj4AZSQ8EUaJHe3loghcgsqfDgZqbPHIMdWu3lLzJ+JxtexXttCssb5RrLfA/wAdQpZH/l7+jC3t6nDum9ejcKQS9BBvcb/+Y+FQmG3CWm0ICfLMYTDQisRy7eD29ixwjoYDfKoGcF3URhmMdqgU5Bk7kVS0yakabIHyZv25dHBux1J7hXIrr3P/92ojXR7my6s+2QmighcgKIX3Wi/tqCkKJOeOxKPnINU5sn+zyZL6Cq0+c5BNU7EOAQNtqJw0e0olfJwpB69HMXYp6Okj3aCOKxHfBfNYUTWnciTbXpU3406Yo6yZ6PX5lB7RO6HKchf8V7kaOwhOLR3Aj9EmnH/iO/Df/KVyMM8x/+5gOyi16OmcG6jq4Ai9nE7MmEORE0OFiBVeyoisyGxmRCxDanAa9BePY1CPbspAreX6aFIfsBxKCpxBkF/MBAP+5DE/RTa54LZP9MadRlyPxsMofKv58BtdiXhb14vaoS3CbinUCjkrU0dQNrOqkp+rtvDzMEDDkP14m9BjsdoVGAjqhX/FrpXQjB9nI4mbE9tJ5I84FAxdKBQzj8jG/QRYEeRTLdxwRE1GyixhwsQYf/O/3+0qcUQui8+hTq29Jsn7L3NoTDDIsKOqlUoB9fdCJXHDJR2eiRKkOjA7wNlw617Q2IW2vsLUYeSKGmNmnwjkriPUsL8MeTdy/pdHtm7bmBUdbAQEbcTxW+LNZJ3aAzkUCThTNQXbVQJLUEt+GOo2d/NKLRXMv6eQ7q2Xco2jJqqDWbl9Pc8rwMlNmwB1mblusaJ+f7DQwkSRU9Wh/pCRE1uQSnGZ6OKs0OJH/eTR4Lye6iK7xkSmqs5FJKw7d3d6KbKBPy+wUuQjXAr8rjVpbTyPK8NEbcbdWH8M37ljkNDYS4i7TuRpO2MeY1RkX+L6uLvQ2ZU8IIyQiqH0vTs02AAv6VnRrAnshNOQskG4/fkpI8egnrfPqQ2Z1KNsKTIHihs1Yvix6uQVpbJ664FijiiOpHz6WyUAnso8aQFcexx4KvIIbWBcUziyDE6D9YM/kodnud1oRjYqehmf4j69oDPQKdyK5K8GzPMgRyKLX8YFe53oRvuMpRfO8rJ1qToQPH4s5B2eChBumsUJsPuepS5uArLkzxW5Pw/aHuaAVrSvqn8020/VJEzl6COuJ4xBYXmPHT6bk73ckqiBxVSvJfAwXI8ynU/Dx2kDY8S4R7jiHoDqhjbn+ITKAtIm/0Zsmsf9X+eUDOLHGH70fN/1+l5XtrhijnA36Cc683IA7cr7UNlgphEUAg/iFXskUH0IBXQ9oy2oMSCJTQJeWMwGbUOeiPKQFxA6bGx/cAdwDdQae1GKuSzySH1LU/gtGolpo1rLeF5Xic65c9GttYNyAtX7+gk8Oyb0r+sooMgXdZGDnn+mw2TkEr8JkTa+ZQuFBlEZsaVqJx2PdK2KiZ9cuj0H7YupBM5idKEaei2ANkI3wNeqnOpC7KFcgQFBln+QrtKPDe9ZldRA5TJZutEkvZvkYpcau40iEtPAdeiFOM1qLCg4m2jcsiO7CcwsltQVUsLMZUo1YS/iD1IJVnmf/730WIMF39n3aCVcIVQVeCv42RU4nkC2uOfooKFpOM4XyLemeJR4/siBZih7IcjJ9TZSAsptm+m1nodqvz5MXJG9VHFtcohcb7Zv1jzu4P8n7dU64OLYCqqrHgHIvEfkGdue42vo1qwa3VzFPdKThTTUd7svyASF5DUuBjVgya5oXZg9bOKYDADPpFqwENrdwyStKf7P5dqeFBAh+JPEHGfQPdr1buTGPKuRp4zg4XAAs/zttRig3xJ0Y4KJP4RqSabUfA6VAZV5zCTFUCne7E44ESxBHg/wYEM8ApU4P0BJBHKoVTIMEcKmtlEkKDQYwqqpX4HKoYvZxqY5n2/QCryQ8iDXLMEohwS9Y8hr67R5Wci4/zBal+Av6idqFHbRSgjJY/iYCtorAwkOyzXhjKtqoHFKO3VRivBqNIk5DUqfhzmIgdOkr+TdUwCXob6bZ+G6mmLMb3gP7cFJVdchziymRTyD3LIrnkInbKmCXcHymi60fO8nVWWeq3IMfUxJB3aUPeHq/HVtgaRuqBT2ahTOcKSsZKwJyDYmI0O5j8n+Bu9BI0Io1gITPM8r69O9yaHKnyOR5L2RIIuMsVgYrW3ouZ9DxFD2lquh4lPPYo29ED/Zw8RaQFyd1cFft7yNKTivQapzhvQtIY11frcFDFAoFa1AVOrZDuOjKGJYBIws9xn+trQ3mj/4zAPaUrPFXm+5khY/9yKDrBTUaLJywhPjYjCLNI24L+RenwfKowfIuVogSHvKtRZcH9ky3hINToeGeAVvUir1WwvssHORSffTtTd8FYyVNVUQQz6Dw8dVDNKv3zceBFpUtHSs1ZEPLsXVhxywFKKhwx7EAHu9zxvVCOBJDBkq9Eee4i0pyG7/2iClkLFYAoHbkGS9gECSZuJG9OkQW5EhLHzVbuA1wIzJtLVoQSmIe/n+5CzYBjlzJo5SI2IfoLNryZ5NxFvj3roQO4us6fTUP1plPwGrcBbUfpqa6m/5Xle9DHd87zFyKNbLbPBoAMJpH9AqYlXofZD0WIcG0Y9vgF4M9IKV6AikpEki2JjN2sJI3kHUerW4yi+CvpyxyHV4pdU6LTxN7oDLcp70CmeR43TLgbWQkPZuTZ2oQPSpKFWK9nhJSR994p57pVIq3qKyJ5aJDwExYdLYV/kYPwEsNbzvKiaPhXlCxyOVOwpaK+7kYP0J1TP4dWONIxz0CGzmPJhuQISGr9E4UnjPc6sw9TOyVyL8oeXEJy4vSi/+C7P8zZNhFDWjTEHOafehU7AAqof/ijqE1034YdxYAdB4kMLQZFCpU+qXUhSxGEuqoC5yvO87TF7uifqr1VOK2hFCQzzkT3Yh+6bWYisC/3PmkzQ6HAIqZ43oE6XY0q8SaABtiHSvh4NVYuOL41DHpH0ZmTTPoxs3NRt2rKIiPul6FTME6TvbUOnV9t4J3hbmIM64e2wPmMrIu6I46Bak8TTfiBi3Oh/90F0wrdU4XNmoBvR3kf7sQbFNKMJ9bOBSxH5o+8ZKPK38tb3GSrxmQWUvPDZ8e51EXhIoh+JKp7+REC8Uo8hZC4uR87ZWUg6h4ie9j1Tcj0iCzMZ+CRydpgvOYwynfaf4GIvQ7aDsfnyiMRfJBKSSHtRqrbYusm+43/3YTQZsBrk7QS+XuLGzaORJ0cS5FrPQwO1d8S8foBAzS1HimKft92/ppnj3eMYTELOp8uR0zUpaZ9HVT4nIdOlaFVQ2vdMyfWIWZwjkepgTtA8Ook/geVgGMNiT0WxtMcJMowK/t/8NpZ6lvZiVH2xdZN8yVrX24DWKnyOhw7FUlJwyN+TL/uPPxIvXc2UyGXANwkf7EmJux7NfJ41kb220Ils6X9H2YFJSfssmjG9DDnlSpXyZf6ejFucLuRIMjNtzAZsRZ7hrnJfykcLGuR8FUHhsXn0o0qhkVBE2gtRk8UWqf6V4BB7EOiuwueABmUnJVep59chx89kFPf9LHLslPubRtreimzsXiyVtMg1l0IrOuhPRFJzPWFhUOwxgJxzH0eEn0oC0ha7ziw9ii3gTFQZEV2cdchJ0RX9chHshYi+kvCpmEfEvZagg2LmF6nCpPoQMh2Mh31hlT7nCkYTsxxRo48NSGsyKYOt/v9fi7yym5AGNeR/pwGkdq9Bh7MpoQt5ektccxxakGr7Kv9vbiQZaYdQ7/FLkRO2lyLpnmnfF+N95KJfwvfobUZ2xEJ0WhmS7YnisEehooF1VohgMgoNnIpO6iMIB8ILKIRxHVJ31vu/K7d5jYYd6MYyzf/mUZ1GA9EbtYBu+iRSJ4+ypz6Ophm+ZL1/C0pcuAd5lRcR9OV6Aamxq1GW10tYoZZx7LOp8DmP8nnHBoPIafVddMCsRmveCCWlIRTbyDyamv4JpKLsSVDLOB34J1Rz+zAiYQ7dhAcjj3LUa2d6034aDTTbDE1HWoNt6AbrJBgqVmm0M3oPPESoJxEh4hIVjGZ0G7LN7ySIDNjYhfZ9PXJmRnugjcIY97rHv8bzkcRNQtoBlAV1LWqn+jzK2GvY0OMo8ppF9jxvCM10vRTNTNkz8r4FSPW1EbfAZlE/g7zNjVKbO170IYJMRnHRuVXIb+5Fpk+B8J5sAi5BEvNspE5O81+3CeXt3uT/+wJ+N424a4vEXEe9IPqeBDFaMwDg5UjSnohIXK6Wtt+/3qtRhp5pLjFC2kYVEuVUqH7UyaIfkXh/wupYqRSzPLoBfoA65j2NVYHRqAuaAFsJEjXaiO8TNVFMQ57d6P5sRPtwL3IkzUCZTwWkEZi0yrJZRRXcv1a0Bq9ApD2e0sUCEJD2bmSG3Ybs835KSP9GQ8n4ln9a9qMY31o0IMnYHtHMFbNoA+j0s0unRnKmm5i0Zk23EWgfrfhxzwrD9Ie2kUf233a0Rxv9R1FUea88dMCcgrp+HEv5+mYTtrwdqcd3oHutoo3d6gUlJa9F4F1ooR5HWVino8WejVS/PDqxn0V20gqUqVXVHj51ii3I5i8QeFITw9+P+ejGfxFYVygU8pHn5zK6GL+ASj/Tbp9rulKejDzZyygvac39Zcry7kdagok5NyUSBan9G8LYRbei2b3TkNSYjBZxKzH2hvkbDiPYhlQ84wCcxthaysxDueFHowPy857nrbSe70S9laPF5f1o5mvFD9OEVWdtKIR4MpK0S4kfvGWjgA66XyHvsSkWCLXnadb7K1Gw2nJimV8NoBtwQ7n3xMHzvFa0mbuSvL7B0Ed48sMUVJS/OeEaLEWhuD1Qq6Ih4IPopvaQX+IcRjt61iDNqNbIoVjv6UjSHkVMDnEEw4i0P0ex3UeRxpL9YoEaInGmCVSUYCbkBIH60ywwCfF5RLAeJJGSjj5pI9i3TlQ00oVi55uQVDsk8p48UjmLVRpVAy0oQvFqVAC/hPJleXkUzroRhRSfJAitOdJGMCbyVhBD6EbqIbDdMls3WQVsRdKlBRFvHspGS4KVKAl/BjoEO1HM/VjkGDyQ8MT1ApJaNwHj6noxRnSi73MGmuFj5tKWQh5pcTei6MTjBKR1KIK0yAtB68xmPFX70PduQzd7XNF8MaxCobeDCezaHIrdxmEYhfseorrOw3bkSDsT9TwuNeISgnDiGuCHKB33GWrU87gRkCZ5DcY94rCOsRXZ+5PQTT8W8vajYvbjUZuWUqpoHmVALWecM5fHUAB/FrJpDyMoM4yDSbN8FsVob0JhyIZMYawmUiGvO03ZhlL3phMkKYwFW1DW225UKBKX6jiI4qH/QnXGxbQQSNoLkCZQ6iAxpH0GOaF+hki7HRdOHBeyIHmbCn7obStBosZ4elkVUKbUJ5F9eC5qBteGCPICsh+vQ4kZu81nVwCdqH/VOchZdhDJSPu0fz03+9e0EydpJwRH3nSwmcC73MIYukhaYTtTonkVqp7ZHx0CLyFyPEfQi6kSxO1A+exno75miyjtiDJleStR04UVyL5tirzjWsCRNx1sIRzrnYqk5ni8q32ot/YTxV5QjCBjSK7YB9m0b0dhqFI2LShycD+ytX+PKnxGJe84TAyOvOlgO7qhTdVPD5K+ieOwNZBYrSi54rWoNC8agorDLlQmeg1BWV5TFQvUEo686WAQJVTkEUm6gXme572QETVyb2TTnk8ySWtIuxylzq4j6EDpUCU48qaHrQTkHWustxroICDt36A4bTlH1G7UuG45TVqWlyYcedNDH+F2ONXoqJEEppvHGaiedjFSj0tJ2n4UP74GuIsipM2IFtGwcORND6a/UxciS8XnFpVxSJmhY2eifOjDKG/T7kCF/MtR14oNNHlZXppw5E0PLyFp1Usw+qRW2IsgueJwyqvHu1DXiuUo8WMDTVoAnyU48qYAP1FjO8GgLdNStdqYCfwV6st9NKVzj0GJFHeh/lB3ovCWc0RlBI686WEbAXlNUX410IZK80wR/DGULoI3/aF+j2YpxZLW2bPpw5E3PZh2OBDU9SZGggQLkzN9KiLtMspX+ewkKGS4E9XWOps2o3DkTQ/bUazXYAqyPStR1zwbtU69AA2T7ir98hHSXuP/62zaOoAjb3roQx01TJbVJJSbPJFuF71ILX4PGqLdS7x6bEjZT2DTOtLWGRx508MQUp0NulBXkfGQtwuNlzkfFQ6YsFOUuDZpb0eS9h5E2mbsJ1bXcORNF30E84PasUZgJiwaaEe9oc5DQ71mUHrCwA4kYb/t//sXLNI61BccedPFboJKm3aSe5xbUPH7O1DLmVkUmYBH4D2+C0naO5B0d+pxncORN13YZXKtqDSwFDrR5Ma/RgX48ylOWpBUvRfZtLfh4rQNBUfedGFm24JIOKXI69pRIfwZwDtRpU903IyByYj6Ixo3Y+ppR0jrbNrGgCNvSvCzrPoJyJsDeiITA1tR0cDpyBl1JMXL84x6bIrgb0PqcTM2+GsKOPKmBGsGlCHvSKKG/9x0lBX1bkpPzisg+/Uh5Ij6DaqndTZtg8ORN11EydvtP5YC70JqcqnmdAOoAd01aIbUczibtmngyJsuBggyqjxUDH8p6sq4F8XDPoNofs+1BKTdiSNtU8GRN10MEkheD82qPQuRNs6uHUSN5q5HHSNNs3JXMNCEcOStIhIkWkwiyDtuZfRYTgjGgpgJAz9DI0+cpG1yOPKmgx7g5cDFlJ6WYBqofxfN8/kTroWqgw9H3tqiHbWbeTuaMzSLeLvWjLr8CcF8WjcWxCEER97awEPjSN6Ekiz2o7gzaiPwC2TXPoJqft2EAYdRcOStPmYiR9Q/otYzpUaEbERtVx9ApB0q8VqHJocj7wRRwinVBRwF/D2aDh9XW1vwHy3+v6vRTB83VNqhLBx5K49WNBrkXDQZfi4irU1ckxW1ChUb7OP/fghHXIeEcOStLGYDrwEuJGhebsNMzluNEixWAh9H5PXw7WBn1zokgSNvZdCDGrxdCLzK/zmqIg+jkrwfonjtU8AB/utMK5xShfQODiE48iZECdt2DxT6eS9SkaP1tXmUUHEr8E3gPtRwPY/Iakr7nLh1GBMcecePHtTA/EPIMRVdS2PX3g98A/g16hZpT4Nvsd7nCOwwJjjyjh0tKNHiA2h2bW/keZPOuApV+/wXykGOa+naRvn5QA4OsXDkjaBMPvIs5EW+ENif+OKBLcCNwFUoMyqUg2w7ozzP6yDYA0N6B4dEcORNhk7UvPz9wGnETx4ww7i+glrPbKE8GdsIkja8BK93cBiBI295LEAOqfegIoKoR3gIqchXI0/yepJnRnUSqM0mjOTgkAiOvMXRDbwC+CfgBEYP5yqg6fb/BVyJVOSx9kDuQOQ1mVaOvA6J0bTkLWPbzkYFBP+AJuxFpe0gyj++AvgtMSpywkQLM1jbXIzLrnJIjKYlbxG0o6ZvHwGOY/TQ6TxKtPg2qvpZjRqnjxfdBHHhPG56gcMY4MgbYC6aPvD3BPnIBqYX8m3A5agn8jYmHpftJhzn3TnBv+fQRHDkld15NPBBVP3TSZi4eeSE+gbwA+DPWOrtePOQfbW9i0DyDqPMKweHRGga8haxcbtRgfzFKM84atvuBn4HfAGFgfqoXDinjdFlgtsr9LcdmgBNQ94YHIiypN7C6DEjedRO9Urg+6iJeaU9wZNRT2ZD3ujITweHkmhG8pqEi0vQJIJoIcEulGTxaVREsKNK1zGVcPO5PAo9OTgkQrORdzJKb/wIMI9ATTaG60bgq6hb4zoqYNuWQC+qSDKSdwA1nXNwSISGJW+MjXswgZrcE3luGM2vvRxJ3Up4kstdWy/BBHuQxHfkdUiMhiVvBAcBn0Ozf6LfeRuya78GPE189U81MI2gyboJRb3gumg4JEWjk7cTle19ktHeZOOU+n9oCsEmalsYMIPw5L9tOMnrMAY0BHmLhIH2QA3gPoDSHe0XDaIQ0KdRwsWIU6qGkm8W4aKEv+AcVg5jQEOQNwZ7AB8FziM8/6eAYqnXAl9H83/SKAboQjnTxtNdQGNNXGGCQ2I0Gnk91LXxEtTF0W5wXkB5yZehTKlaq8k2ZgDzCbSBPPJuOzgkRqOR90hkw55G+LsVgAf9535D+plMs1GdsCHvbtQqx8EhMeqWvBE7tw04CUnVowgnXhj79hI0+2ekcidFz+4cpDYb9KMKJQeHxKhb8lrIIeJ+CVhE2DG1G7gB+ASSbFmxKfciHCbahsZ3OjgkRr2TtwM4G/g3lIRhE7cPdW/8MrCGjPSH8jWGeYTt8eeRw8rBITHqirwRVbkdEfdzwL6Mrs65DJF3ZERmRhIgelHnSRNzHgaeoXo51A4NiroibwTHIYLuZ/2ugMh6BbCcZB0ca435hLWEQeAJoJCRw8WhTlCP5G1F84C+iLKmbGxERQc/IWMJD5bWsAAR2KAfNa9zcBgT6oK81o2fQwO9PovqcQ0KSMpeBvyYbHek2I+gfthoCk+mdzkO9Yq6IK+Fg1Ge8mHW7woo4eIS1Dd528gT2VNDpwCHEDS2K6Asr/WpXZFD3aKeyLsQSdZTCDundgCfQVlT22LelyXsDSwh3D3jEWBHBg8ah4wj0+S11OVpqKvjqwjnA+9A/aW+i68qZ5wEC5Gn2WAXmiLo4DBm1MMw5y5U1nc+QWzUjM9cjupwN5Lh8Zj+IdSCkkjMVEGj7j+YzlU51DvqgbxHABcR7n6RB25CLWs2kWHiWpiJcq/tqYBPAmsyri04ZBSZVJstdXkPNLz6IOvpPPAw8CmU8pivk5t/P3QQ2fHdu3CN1h3GiSxL3g5UTP9qwoUGLyCP8xNkJ1e5HFqR1LXju9uBO6gPrcEhg8gyeY8A3k14Fu4uZOP+njoZyuVrEVNRRliX/+sCGgv6cDpX5dAIyJza7N/sk9FM3AXWU3k0ke8/qA/Pso2FwDGEQ0R3IEebg8O4kFXJuxR4HWF1+S+o7G8d9aVq5hBxbZW5DzUFqBd73SGDyCJ5e9G0vtnW7waRxL0XVeHUBXwtYhZKLDHqfx55me9L6bIcGgSZIq9/sy8GTic8zWAt8D2ynbNcDIuQJmF7mX+FU5kdJojM2LyWrfsawjN8jNR9ivorm+tCUtduebMRkbduNAiHbCIz5PWxAN3sdgrk88BPqaN4qBWn3gf4K4J1HgbuBB6DunK4OWQQWVKbPZS0vz+BilkAVlCfUhfUW8vuq7UD+BGua4ZDBZAl8vagRAY7DXIn6vxYN1LXwjzgzQQjTQrASuAPqV2RQ0MhS+TdE0leW2XegLyy9SZycygzbKn1u37kdHsBnMrsMHFkyebdg3BSRgGpy2uhPm52y9Y9CFVBdfs/F1A6569xjiqHCiFLknc24Xm1edTLuN7swy7gTcDh1u/6getQC1oHh4ogS+SdRjiPeRg/m6oepK6FI4FzCVrd5FGDuZ9SP4UUDnWALKnNOUbPz+1L6VrGBEtdngpcSKD+m6mEX8XvU1VnB5FDhpElyesR7k0V/TnraAPeiJJMzKGYR3buL3FS16HCyBJ5dxG+wVuQKp1ZeJ5npG4OeCWqM7ZnEK1G/aU3p3B5Dg2OLJF3C9YEP0SIRUBHZMxJFnEoaj27J9IWTHO8rwMP4NvtTmV2qCSyRN5VhIdttaA46fz4l6cHS+KCmgZcAbyMcL3uj4D/JHwgOThUDFki71pUKmeLJ5Pr3JbKFZXHYWhg90mE85fvBS4HXkznshyaAVki71bU3mbA+l07SnbYJyLtUkHExj0NuIpwL+k8Ssb4KIpRZ2k6oUODIUvkzQO34WdU+TDFCh9BucJZMH5no3DQlUhVtlu5Pofa1N6N8y47VBlZIi9obs+NhJvL5VDSw4eBGZ5Qswsy0tbzvB6kwl+FxqvsS7B+pjvG+1EhxW6QxHVS16Fa8LJ0c/msPAL4FuGGbSB1+sfA59F8nyGojkoaORwmIcfZ3wJnokYB9qE3hOpzLwL+F6VCUq1rc3AwyBp5Qf2azwS+AuxFmMB5lB+8HLgeZS1VxK6MEDaHmqSfipIulqKYs03aApKw/w1cilIgBypxLQ4OSZBF8oKS+9+GpgLOiLysgKTdGuTg+h8US30WhWUKUJxARVRuD9myhyCJvwzZ2nujwyT6pjzqZnk9sn1XY1ULZWlNHRoXmSIvhMg1Hdm6H0Oqahzr8khN3YC8u3/y/78BJUnsQEQ3NnQb8mB3oXK9Xv9vLwAOQGSd4r8u7vMK6IC4G4WCbsdqipe1tXRobGSZvKCuGqej7KXFlC+kyPuPYaTSDiDyDiEytvh/owOR2BRDlHPcGRX5KeA7yKm2johHOWtr6dDYyBx5DSwSdwIHIofRW1HRfrWLFsyiGMm+EmVM3YIywUayprK6fg6Nj3ogL4iok1FG0xuAs1Dct53Kh7uM1H4e9Zu6GXV8XE9M7Dar6+fQ+MgseQ1iSNyDbNRlKO56JJLGXchWbSGQyqZIwPxr/848DFm3owSRB5BN+wByivURaV2T9TVzaA5knrwGRbzEk1A4aQEa5rUQ9UqeiSR1J7JrPQJ7eDdyZG1ChRBrkCq81n9sJJyiOYJ6WSuH5kDdkNdGmQyrHCJtD4FjyrxhAJF3p/8oOya0HtfHoTnw/wFPENxMjzkwhQAAAABJRU5ErkJggg==;opacity=30;" parent="1" vertex="1">
          <mxGeometry x="803" y="-23" width="21.08" height="20" as="geometry" />
        </mxCell>
        <mxCell id="sGpQJkMBHfHeCSqF3O8G-5" value="&lt;div style=&quot;&quot;&gt;Attention : Some components may need additional case cutting in order to fit properly!&lt;/div&gt;" style="text;strokeColor=none;align=left;fillColor=none;html=1;verticalAlign=middle;whiteSpace=wrap;rounded=0;" parent="1" vertex="1">
          <mxGeometry x="6" y="-74" width="466" height="20" as="geometry" />
        </mxCell>
        <mxCell id="D1VgD2juVWL0YW8bx5-5-323" value="" style="group" vertex="1" connectable="0" parent="1">
          <mxGeometry x="411.99980000000005" y="-1018.11" width="303.50019999999995" height="455.6436348623854" as="geometry" />
        </mxCell>
        <mxCell id="D1VgD2juVWL0YW8bx5-5-280" value="&lt;span style=&quot;font-weight: normal; font-size: 7px;&quot;&gt;&lt;font style=&quot;font-size: 7px;&quot;&gt;(2)&lt;/font&gt;&lt;/span&gt;" style="text;align=center;html=1;verticalAlign=middle;rounded=0;shadow=0;glass=0;labelBorderColor=none;labelBackgroundColor=none;whiteSpace=wrap;fontStyle=1;container=0;rotation=0;fontSize=7;perimeterSpacing=1;" vertex="1" parent="D1VgD2juVWL0YW8bx5-5-323">
          <mxGeometry x="184.00019999999995" y="100.10880000000009" width="17.25" height="9.19" as="geometry" />
        </mxCell>
        <mxCell id="D1VgD2juVWL0YW8bx5-5-44" value="&lt;font style=&quot;font-size: 20px;&quot;&gt;Side Cap Bottom View&lt;br&gt;&lt;/font&gt;" style="text;align=center;html=1;verticalAlign=middle;rounded=0;shadow=0;glass=0;labelBorderColor=none;labelBackgroundColor=none;whiteSpace=wrap;fontStyle=1;container=0;" vertex="1" parent="D1VgD2juVWL0YW8bx5-5-323">
          <mxGeometry x="86.18019999999996" width="217.32" height="38.11" as="geometry" />
        </mxCell>
        <mxCell id="D1VgD2juVWL0YW8bx5-5-45" value="" style="rounded=0;whiteSpace=wrap;html=1;fillColor=none;strokeWidth=1.5;" vertex="1" parent="D1VgD2juVWL0YW8bx5-5-323">
          <mxGeometry x="148.8302" y="111.11000000000001" width="90.29" height="289" as="geometry" />
        </mxCell>
        <mxCell id="D1VgD2juVWL0YW8bx5-5-46" value="" style="rounded=0;whiteSpace=wrap;html=1;fillColor=none;strokeWidth=1.5;" vertex="1" parent="D1VgD2juVWL0YW8bx5-5-323">
          <mxGeometry x="158.4834354623713" y="111.41179999999997" width="71" height="278.7" as="geometry" />
        </mxCell>
        <mxCell id="D1VgD2juVWL0YW8bx5-5-52" value="" style="endArrow=classic;startArrow=classic;html=1;rounded=0;movable=1;resizable=1;rotatable=1;deletable=1;editable=1;locked=0;connectable=1;strokeWidth=1.5;sourcePerimeterSpacing=0;" edge="1" parent="D1VgD2juVWL0YW8bx5-5-323">
          <mxGeometry width="50" height="50" relative="1" as="geometry">
            <mxPoint x="126.00019999999995" y="398.1118" as="sourcePoint" />
            <mxPoint x="126.00019999999995" y="117.11000000000001" as="targetPoint" />
          </mxGeometry>
        </mxCell>
        <mxCell id="D1VgD2juVWL0YW8bx5-5-53" value="&lt;span style=&quot;font-weight: normal;&quot;&gt;&lt;font style=&quot;font-size: 20px;&quot;&gt;79.5 mm&lt;/font&gt;&lt;/span&gt;" style="text;align=center;html=1;verticalAlign=middle;rounded=0;shadow=0;glass=0;labelBorderColor=none;labelBackgroundColor=none;whiteSpace=wrap;fontStyle=1;direction=east;rotation=-90;container=0;" vertex="1" parent="D1VgD2juVWL0YW8bx5-5-323">
          <mxGeometry x="20.997654124766143" y="237.1115247706423" width="159.02420184221066" height="38.53211009174312" as="geometry" />
        </mxCell>
        <mxCell id="D1VgD2juVWL0YW8bx5-5-54" value="" style="endArrow=classic;startArrow=classic;html=1;rounded=0;movable=1;resizable=1;rotatable=1;deletable=1;editable=1;locked=0;connectable=1;strokeWidth=1.5;sourcePerimeterSpacing=0;" edge="1" parent="D1VgD2juVWL0YW8bx5-5-323">
          <mxGeometry width="50" height="50" relative="1" as="geometry">
            <mxPoint x="236.8434354623713" y="417.1118" as="sourcePoint" />
            <mxPoint x="150.8434354623713" y="417.1118" as="targetPoint" />
          </mxGeometry>
        </mxCell>
        <mxCell id="D1VgD2juVWL0YW8bx5-5-55" value="&lt;span style=&quot;font-weight: normal;&quot;&gt;&lt;font style=&quot;font-size: 20px;&quot;&gt;23 mm&lt;/font&gt;&lt;/span&gt;" style="text;align=center;html=1;verticalAlign=middle;rounded=0;shadow=0;glass=0;labelBorderColor=none;labelBackgroundColor=none;whiteSpace=wrap;fontStyle=1;direction=east;rotation=0;container=0;" vertex="1" parent="D1VgD2juVWL0YW8bx5-5-323">
          <mxGeometry x="113.84765412476622" y="417.1115247706423" width="159.02420184221066" height="38.53211009174312" as="geometry" />
        </mxCell>
        <mxCell id="D1VgD2juVWL0YW8bx5-5-56" value="2 mm" style="text;align=center;html=1;verticalAlign=middle;rounded=0;shadow=0;glass=0;labelBorderColor=none;labelBackgroundColor=none;whiteSpace=wrap;fontStyle=0;container=0;rotation=0;fontSize=7;" vertex="1" parent="D1VgD2juVWL0YW8bx5-5-323">
          <mxGeometry x="221.8434354623713" y="207.11180000000002" width="42" height="11.29" as="geometry" />
        </mxCell>
        <mxCell id="D1VgD2juVWL0YW8bx5-5-57" value="" style="endArrow=classic;startArrow=classic;html=1;rounded=0;movable=1;resizable=1;rotatable=1;deletable=1;editable=1;locked=0;connectable=1;sourcePerimeterSpacing=0;strokeWidth=0.5;endSize=3;startSize=3;" edge="1" parent="D1VgD2juVWL0YW8bx5-5-323">
          <mxGeometry width="50" height="50" relative="1" as="geometry">
            <mxPoint x="229.8434354623713" y="219.11180000000002" as="sourcePoint" />
            <mxPoint x="238.8434354623713" y="219.11180000000002" as="targetPoint" />
          </mxGeometry>
        </mxCell>
        <mxCell id="D1VgD2juVWL0YW8bx5-5-58" value="2.5 mm" style="text;align=center;html=1;verticalAlign=middle;rounded=0;shadow=0;glass=0;labelBorderColor=none;labelBackgroundColor=none;whiteSpace=wrap;fontStyle=0;container=0;rotation=0;fontSize=7;" vertex="1" parent="D1VgD2juVWL0YW8bx5-5-323">
          <mxGeometry x="184.8434354623713" y="386.1118" width="50" height="20" as="geometry" />
        </mxCell>
        <mxCell id="D1VgD2juVWL0YW8bx5-5-59" value="" style="endArrow=classic;startArrow=classic;html=1;rounded=0;movable=1;resizable=1;rotatable=1;deletable=1;editable=1;locked=0;connectable=1;sourcePerimeterSpacing=0;strokeWidth=0.5;endSize=3;startSize=3;" edge="1" parent="D1VgD2juVWL0YW8bx5-5-323">
          <mxGeometry width="50" height="50" relative="1" as="geometry">
            <mxPoint x="193.8434354623713" y="400.1118" as="sourcePoint" />
            <mxPoint x="193.8434354623713" y="390.1118" as="targetPoint" />
          </mxGeometry>
        </mxCell>
        <mxCell id="D1VgD2juVWL0YW8bx5-5-73" value="" style="endArrow=none;html=1;rounded=0;strokeWidth=1.5;" edge="1" parent="D1VgD2juVWL0YW8bx5-5-323">
          <mxGeometry width="50" height="50" relative="1" as="geometry">
            <mxPoint x="148.8434354623713" y="111.41179999999997" as="sourcePoint" />
            <mxPoint x="158.8434354623713" y="111.41179999999997" as="targetPoint" />
          </mxGeometry>
        </mxCell>
        <mxCell id="D1VgD2juVWL0YW8bx5-5-74" value="" style="endArrow=none;html=1;rounded=0;strokeWidth=1.5;" edge="1" parent="D1VgD2juVWL0YW8bx5-5-323">
          <mxGeometry width="50" height="50" relative="1" as="geometry">
            <mxPoint x="228.8434354623713" y="111.41179999999997" as="sourcePoint" />
            <mxPoint x="238.8434354623713" y="111.41179999999997" as="targetPoint" />
          </mxGeometry>
        </mxCell>
        <mxCell id="D1VgD2juVWL0YW8bx5-5-148" value="" style="endArrow=none;html=1;rounded=0;strokeWidth=1.5;" edge="1" parent="D1VgD2juVWL0YW8bx5-5-323">
          <mxGeometry width="50" height="50" relative="1" as="geometry">
            <mxPoint x="158.47519999999997" y="390.11" as="sourcePoint" />
            <mxPoint x="158.47519999999997" y="400.11" as="targetPoint" />
          </mxGeometry>
        </mxCell>
        <mxCell id="D1VgD2juVWL0YW8bx5-5-149" value="" style="endArrow=none;html=1;rounded=0;strokeWidth=1.5;" edge="1" parent="D1VgD2juVWL0YW8bx5-5-323">
          <mxGeometry width="50" height="50" relative="1" as="geometry">
            <mxPoint x="229.48519999999996" y="390.11" as="sourcePoint" />
            <mxPoint x="229.48519999999996" y="400.11" as="targetPoint" />
          </mxGeometry>
        </mxCell>
        <mxCell id="D1VgD2juVWL0YW8bx5-5-151" value="" style="rounded=0;whiteSpace=wrap;html=1;fillColor=none;" vertex="1" parent="D1VgD2juVWL0YW8bx5-5-323">
          <mxGeometry x="209.00019999999995" y="108.11000000000001" width="15" height="3" as="geometry" />
        </mxCell>
        <mxCell id="D1VgD2juVWL0YW8bx5-5-153" value="" style="rounded=0;whiteSpace=wrap;html=1;fillColor=none;" vertex="1" parent="D1VgD2juVWL0YW8bx5-5-323">
          <mxGeometry x="163.00019999999995" y="108.11000000000001" width="15" height="3" as="geometry" />
        </mxCell>
        <mxCell id="D1VgD2juVWL0YW8bx5-5-154" value="" style="rounded=0;whiteSpace=wrap;html=1;fillColor=none;" vertex="1" parent="D1VgD2juVWL0YW8bx5-5-323">
          <mxGeometry x="229.00019999999995" y="108.11000000000001" width="6" height="3" as="geometry" />
        </mxCell>
        <mxCell id="D1VgD2juVWL0YW8bx5-5-155" value="" style="rounded=0;whiteSpace=wrap;html=1;fillColor=none;" vertex="1" parent="D1VgD2juVWL0YW8bx5-5-323">
          <mxGeometry x="153.00019999999995" y="108.11000000000001" width="6" height="3" as="geometry" />
        </mxCell>
        <mxCell id="D1VgD2juVWL0YW8bx5-5-157" value="" style="endArrow=none;startArrow=classic;html=1;rounded=0;movable=1;resizable=1;rotatable=1;deletable=1;editable=1;locked=0;connectable=1;sourcePerimeterSpacing=0;strokeWidth=1;endSize=5;startSize=5;endFill=0;strokeColor=#323232;dashed=1;" edge="1" parent="D1VgD2juVWL0YW8bx5-5-323">
          <mxGeometry width="50" height="50" relative="1" as="geometry">
            <mxPoint x="190.00019999999995" y="88.11000000000001" as="sourcePoint" />
            <mxPoint x="170.00019999999995" y="109.11000000000001" as="targetPoint" />
          </mxGeometry>
        </mxCell>
        <mxCell id="D1VgD2juVWL0YW8bx5-5-158" value="" style="endArrow=none;startArrow=classic;html=1;rounded=0;movable=1;resizable=1;rotatable=1;deletable=1;editable=1;locked=0;connectable=1;sourcePerimeterSpacing=0;strokeWidth=1;endSize=5;startSize=5;endFill=0;strokeColor=#323232;dashed=1;" edge="1" parent="D1VgD2juVWL0YW8bx5-5-323">
          <mxGeometry width="50" height="50" relative="1" as="geometry">
            <mxPoint x="193.00019999999995" y="88.11000000000001" as="sourcePoint" />
            <mxPoint x="216.00019999999995" y="108.11000000000001" as="targetPoint" />
          </mxGeometry>
        </mxCell>
        <mxCell id="D1VgD2juVWL0YW8bx5-5-159" value="" style="endArrow=none;startArrow=classic;html=1;rounded=0;movable=1;resizable=1;rotatable=1;deletable=1;editable=1;locked=0;connectable=1;sourcePerimeterSpacing=0;strokeWidth=1;endSize=5;startSize=5;endFill=0;strokeColor=#323232;dashed=1;" edge="1" parent="D1VgD2juVWL0YW8bx5-5-323">
          <mxGeometry width="50" height="50" relative="1" as="geometry">
            <mxPoint x="205.00019999999995" y="87.11000000000001" as="sourcePoint" />
            <mxPoint x="232.00019999999995" y="109.11000000000001" as="targetPoint" />
          </mxGeometry>
        </mxCell>
        <mxCell id="D1VgD2juVWL0YW8bx5-5-160" value="" style="endArrow=none;startArrow=classic;html=1;rounded=0;movable=1;resizable=1;rotatable=1;deletable=1;editable=1;locked=0;connectable=1;sourcePerimeterSpacing=0;strokeWidth=1;endSize=5;startSize=5;endFill=0;strokeColor=#323232;dashed=1;" edge="1" parent="D1VgD2juVWL0YW8bx5-5-323">
          <mxGeometry width="50" height="50" relative="1" as="geometry">
            <mxPoint x="180.00019999999995" y="87.11000000000001" as="sourcePoint" />
            <mxPoint x="155.00019999999995" y="109.11000000000001" as="targetPoint" />
          </mxGeometry>
        </mxCell>
        <mxCell id="D1VgD2juVWL0YW8bx5-5-161" value="&lt;span style=&quot;font-weight: normal;&quot;&gt;&lt;font style=&quot;font-size: 13px;&quot;&gt;0.5 mm Height&lt;/font&gt;&lt;/span&gt;" style="text;align=center;html=1;verticalAlign=middle;rounded=0;shadow=0;glass=0;labelBorderColor=none;labelBackgroundColor=none;whiteSpace=wrap;fontStyle=1;direction=east;rotation=0;container=0;" vertex="1" parent="D1VgD2juVWL0YW8bx5-5-323">
          <mxGeometry x="146.00019999999995" y="58.110000000000014" width="92" height="28.53" as="geometry" />
        </mxCell>
        <mxCell id="D1VgD2juVWL0YW8bx5-5-162" value="" style="endArrow=classic;startArrow=classic;html=1;rounded=0;movable=1;resizable=1;rotatable=1;deletable=1;editable=1;locked=0;connectable=1;sourcePerimeterSpacing=0;strokeWidth=0.5;endSize=3;startSize=3;" edge="1" parent="D1VgD2juVWL0YW8bx5-5-323">
          <mxGeometry width="50" height="50" relative="1" as="geometry">
            <mxPoint x="163.00019999999995" y="116.11000000000001" as="sourcePoint" />
            <mxPoint x="178.00019999999995" y="116.11000000000001" as="targetPoint" />
          </mxGeometry>
        </mxCell>
        <mxCell id="D1VgD2juVWL0YW8bx5-5-163" value="10.1 mm Radius&lt;br&gt;(0.75 mm Width)" style="text;align=center;html=1;verticalAlign=middle;rounded=0;shadow=0;glass=0;labelBorderColor=none;labelBackgroundColor=none;whiteSpace=wrap;fontStyle=0;container=0;rotation=0;fontSize=7;" vertex="1" parent="D1VgD2juVWL0YW8bx5-5-323">
          <mxGeometry x="158.00019999999995" y="122.11000000000001" width="59" height="11.29" as="geometry" />
        </mxCell>
        <mxCell id="D1VgD2juVWL0YW8bx5-5-167" value="" style="endArrow=none;startArrow=classic;html=1;rounded=0;movable=1;resizable=1;rotatable=1;deletable=1;editable=1;locked=0;connectable=1;sourcePerimeterSpacing=0;strokeWidth=1;endSize=5;startSize=5;endFill=0;strokeColor=#323232;dashed=1;" edge="1" parent="D1VgD2juVWL0YW8bx5-5-323">
          <mxGeometry width="50" height="50" relative="1" as="geometry">
            <mxPoint x="78.00019999999995" y="346.11" as="sourcePoint" />
            <mxPoint x="191.00019999999995" y="395.11" as="targetPoint" />
          </mxGeometry>
        </mxCell>
        <mxCell id="D1VgD2juVWL0YW8bx5-5-168" value="" style="ellipse;whiteSpace=wrap;html=1;aspect=fixed;fillColor=none;dashed=1;strokeColor=#303030;" vertex="1" parent="D1VgD2juVWL0YW8bx5-5-323">
          <mxGeometry y="299.1088000000001" width="73" height="73" as="geometry" />
        </mxCell>
        <mxCell id="D1VgD2juVWL0YW8bx5-5-176" value="" style="group" vertex="1" connectable="0" parent="D1VgD2juVWL0YW8bx5-5-323">
          <mxGeometry x="6.00019999999995" y="304.11" width="61.32" height="60.63" as="geometry" />
        </mxCell>
        <mxCell id="D1VgD2juVWL0YW8bx5-5-170" value="" style="verticalLabelPosition=bottom;verticalAlign=top;html=1;shape=mxgraph.basic.arc;startAngle=0.25159149638245415;endAngle=0.7515914963824541;" vertex="1" parent="D1VgD2juVWL0YW8bx5-5-176">
          <mxGeometry x="0.34778507462686153" width="60.63358208955224" height="60.629999999999995" as="geometry" />
        </mxCell>
        <mxCell id="D1VgD2juVWL0YW8bx5-5-171" value="" style="verticalLabelPosition=bottom;verticalAlign=top;html=1;shape=mxgraph.basic.arc;startAngle=0.7531826745504864;endAngle=0.25318267455048643;" vertex="1" parent="D1VgD2juVWL0YW8bx5-5-176">
          <mxGeometry x="6.635373134328359" y="6.351278490566074" width="47.923044358208955" height="47.92021317735849" as="geometry" />
        </mxCell>
        <mxCell id="D1VgD2juVWL0YW8bx5-5-174" value="" style="endArrow=none;html=1;rounded=0;" edge="1" parent="D1VgD2juVWL0YW8bx5-5-176">
          <mxGeometry width="50" height="50" relative="1" as="geometry">
            <mxPoint x="55" y="30.3" as="sourcePoint" />
            <mxPoint x="61.45" y="30.3" as="targetPoint" />
          </mxGeometry>
        </mxCell>
        <mxCell id="D1VgD2juVWL0YW8bx5-5-177" value="" style="ellipse;whiteSpace=wrap;html=1;aspect=fixed;fillColor=none;strokeWidth=1;dashed=1;dashPattern=1 1;" vertex="1" parent="D1VgD2juVWL0YW8bx5-5-176">
          <mxGeometry x="27.1" y="26.81" width="7" height="7" as="geometry" />
        </mxCell>
        <mxCell id="D1VgD2juVWL0YW8bx5-5-180" value="" style="ellipse;whiteSpace=wrap;html=1;aspect=fixed;fontColor=#000000;fillColor=#000000;container=0;strokeWidth=1;" vertex="1" parent="D1VgD2juVWL0YW8bx5-5-176">
          <mxGeometry x="30.410000000000025" y="30.059999999999945" width="0.51" height="0.51" as="geometry" />
        </mxCell>
        <mxCell id="D1VgD2juVWL0YW8bx5-5-181" value="" style="endArrow=none;html=1;rounded=0;dashed=1;" edge="1" parent="D1VgD2juVWL0YW8bx5-5-176">
          <mxGeometry width="50" height="50" relative="1" as="geometry">
            <mxPoint x="53.410000000000025" y="30.289999999999964" as="sourcePoint" />
            <mxPoint x="30.410000000000025" y="30.289999999999964" as="targetPoint" />
          </mxGeometry>
        </mxCell>
        <mxCell id="D1VgD2juVWL0YW8bx5-5-184" value="" style="endArrow=none;html=1;rounded=0;strokeWidth=1;" edge="1" parent="D1VgD2juVWL0YW8bx5-5-176">
          <mxGeometry width="50" height="50" relative="1" as="geometry">
            <mxPoint x="-0.15" y="30.279999999999973" as="sourcePoint" />
            <mxPoint x="7.15" y="30.279999999999973" as="targetPoint" />
          </mxGeometry>
        </mxCell>
        <mxCell id="D1VgD2juVWL0YW8bx5-5-185" value="" style="endArrow=none;html=1;rounded=0;dashed=1;" edge="1" parent="D1VgD2juVWL0YW8bx5-5-176">
          <mxGeometry width="50" height="50" relative="1" as="geometry">
            <mxPoint x="30.629999999999995" y="32" as="sourcePoint" />
            <mxPoint x="30.629999999999995" y="60" as="targetPoint" />
          </mxGeometry>
        </mxCell>
        <mxCell id="D1VgD2juVWL0YW8bx5-5-186" value="" style="endArrow=classic;startArrow=classic;html=1;rounded=0;movable=1;resizable=1;rotatable=1;deletable=1;editable=1;locked=0;connectable=1;sourcePerimeterSpacing=0;strokeWidth=1;endSize=3;startSize=3;" edge="1" parent="D1VgD2juVWL0YW8bx5-5-323">
          <mxGeometry width="50" height="50" relative="1" as="geometry">
            <mxPoint x="36.70019999999994" y="333.11" as="sourcePoint" />
            <mxPoint x="36.70019999999994" y="312.1118" as="targetPoint" />
          </mxGeometry>
        </mxCell>
        <mxCell id="D1VgD2juVWL0YW8bx5-5-187" value="&lt;span style=&quot;font-size: 7px;&quot;&gt;&lt;font style=&quot;font-size: 7px;&quot;&gt;9.5 mm&lt;/font&gt;&lt;/span&gt;" style="text;align=center;html=1;verticalAlign=middle;rounded=0;shadow=0;glass=0;labelBorderColor=none;labelBackgroundColor=none;whiteSpace=wrap;fontStyle=0;container=0;rotation=-90;fontSize=7;" vertex="1" parent="D1VgD2juVWL0YW8bx5-5-323">
          <mxGeometry x="0.0001999999999497959" y="318.1118" width="56" height="16.3" as="geometry" />
        </mxCell>
        <mxCell id="D1VgD2juVWL0YW8bx5-5-190" value="2.5 mm" style="text;align=center;html=1;verticalAlign=middle;rounded=0;shadow=0;glass=0;labelBorderColor=none;labelBackgroundColor=none;whiteSpace=wrap;fontStyle=0;container=0;rotation=0;fontSize=7;" vertex="1" parent="D1VgD2juVWL0YW8bx5-5-323">
          <mxGeometry x="26.00019999999995" y="333.1118" width="50" height="20" as="geometry" />
        </mxCell>
        <mxCell id="D1VgD2juVWL0YW8bx5-5-191" value="" style="endArrow=classic;startArrow=classic;html=1;rounded=0;movable=1;resizable=1;rotatable=1;deletable=1;editable=1;locked=0;connectable=1;sourcePerimeterSpacing=0;strokeWidth=0.5;endSize=3;startSize=3;" edge="1" parent="D1VgD2juVWL0YW8bx5-5-323">
          <mxGeometry width="50" height="50" relative="1" as="geometry">
            <mxPoint x="45.00019999999995" y="340.1118" as="sourcePoint" />
            <mxPoint x="45.00019999999995" y="330.1118" as="targetPoint" />
          </mxGeometry>
        </mxCell>
        <mxCell id="D1VgD2juVWL0YW8bx5-5-324" value="" style="group" vertex="1" connectable="0" parent="1">
          <mxGeometry x="111.25026453762865" y="-1018.1082" width="374.74973546237135" height="455.6418348623854" as="geometry" />
        </mxCell>
        <mxCell id="D1VgD2juVWL0YW8bx5-5-255" value="" style="group;rotation=-180;" vertex="1" connectable="0" parent="D1VgD2juVWL0YW8bx5-5-324">
          <mxGeometry x="214.74973546237135" y="124.10820000000001" width="61.131367164179096" height="60.629999999999995" as="geometry" />
        </mxCell>
        <mxCell id="D1VgD2juVWL0YW8bx5-5-253" value="" style="verticalLabelPosition=bottom;verticalAlign=top;html=1;shape=mxgraph.basic.arc;startAngle=0.25159149638245415;endAngle=0.7515914963824541;rotation=-180;" vertex="1" parent="D1VgD2juVWL0YW8bx5-5-255">
          <mxGeometry width="60.63358208955224" height="60.629999999999995" as="geometry" />
        </mxCell>
        <mxCell id="D1VgD2juVWL0YW8bx5-5-254" value="" style="endArrow=none;html=1;rounded=0;" edge="1" parent="D1VgD2juVWL0YW8bx5-5-255">
          <mxGeometry width="50" height="50" relative="1" as="geometry">
            <mxPoint x="61" y="30" as="sourcePoint" />
            <mxPoint x="54" y="30" as="targetPoint" />
          </mxGeometry>
        </mxCell>
        <mxCell id="D1VgD2juVWL0YW8bx5-5-256" value="" style="endArrow=none;html=1;rounded=0;" edge="1" parent="D1VgD2juVWL0YW8bx5-5-255">
          <mxGeometry width="50" height="50" relative="1" as="geometry">
            <mxPoint x="6" y="30.269999999999982" as="sourcePoint" />
            <mxPoint x="-0.5" y="30.269999999999982" as="targetPoint" />
          </mxGeometry>
        </mxCell>
        <mxCell id="D1VgD2juVWL0YW8bx5-5-276" value="" style="verticalLabelPosition=bottom;verticalAlign=top;html=1;shape=mxgraph.basic.arc;startAngle=0.7616247670142178;endAngle=0.24363719432600411;dashed=1;dashPattern=12 12;" vertex="1" parent="D1VgD2juVWL0YW8bx5-5-324">
          <mxGeometry x="217.74973546237135" y="127.10820000000001" width="53.88" height="53.88" as="geometry" />
        </mxCell>
        <mxCell id="D1VgD2juVWL0YW8bx5-5-42" value="" style="group" vertex="1" connectable="0" parent="D1VgD2juVWL0YW8bx5-5-324">
          <mxGeometry width="215.18973546237135" height="455.6418348623854" as="geometry" />
        </mxCell>
        <mxCell id="K3vBRPoJTIptSZS2Vwr1-38" value="&lt;font style=&quot;font-size: 20px;&quot;&gt;Body Top View&lt;br&gt;&lt;/font&gt;" style="text;align=center;html=1;verticalAlign=middle;rounded=0;shadow=0;glass=0;labelBorderColor=none;labelBackgroundColor=none;whiteSpace=wrap;fontStyle=1;container=0;" parent="D1VgD2juVWL0YW8bx5-5-42" vertex="1">
          <mxGeometry x="8.589735462371351" width="206.6" height="38.11" as="geometry" />
        </mxCell>
        <mxCell id="D1VgD2juVWL0YW8bx5-5-4" value="" style="rounded=0;whiteSpace=wrap;html=1;fillColor=none;strokeWidth=1.5;" vertex="1" parent="D1VgD2juVWL0YW8bx5-5-42">
          <mxGeometry x="66.73973546237136" y="48.110000000000014" width="90.29" height="352" as="geometry" />
        </mxCell>
        <mxCell id="D1VgD2juVWL0YW8bx5-5-5" value="" style="rounded=0;whiteSpace=wrap;html=1;fillColor=none;strokeWidth=1.5;" vertex="1" parent="D1VgD2juVWL0YW8bx5-5-42">
          <mxGeometry x="76.38973546237133" y="111.40999999999997" width="71" height="278.7" as="geometry" />
        </mxCell>
        <mxCell id="D1VgD2juVWL0YW8bx5-5-6" value="" style="ellipse;whiteSpace=wrap;html=1;aspect=fixed;fillColor=none;strokeWidth=1.5;dashed=1;dashPattern=1 1;" vertex="1" parent="D1VgD2juVWL0YW8bx5-5-42">
          <mxGeometry x="104.88973546237133" y="71.11000000000001" width="14" height="14" as="geometry" />
        </mxCell>
        <mxCell id="D1VgD2juVWL0YW8bx5-5-7" value="" style="rounded=0;whiteSpace=wrap;html=1;strokeWidth=1.5;fillColor=none;" vertex="1" parent="D1VgD2juVWL0YW8bx5-5-42">
          <mxGeometry x="76.74973546237135" y="347.11" width="70" height="9" as="geometry" />
        </mxCell>
        <mxCell id="D1VgD2juVWL0YW8bx5-5-8" value="" style="rounded=0;whiteSpace=wrap;html=1;strokeWidth=1.5;fillColor=none;rotation=-90;" vertex="1" parent="D1VgD2juVWL0YW8bx5-5-42">
          <mxGeometry x="-5.935514537628663" y="224.32000000000005" width="235.5" height="9.86" as="geometry" />
        </mxCell>
        <mxCell id="D1VgD2juVWL0YW8bx5-5-9" value="" style="rounded=0;whiteSpace=wrap;html=1;strokeWidth=1.5;fillColor=none;rotation=-90;" vertex="1" parent="D1VgD2juVWL0YW8bx5-5-42">
          <mxGeometry x="95.04853546237132" y="367.78999999999996" width="33.46" height="10.21" as="geometry" />
        </mxCell>
        <mxCell id="D1VgD2juVWL0YW8bx5-5-11" value="" style="ellipse;whiteSpace=wrap;html=1;aspect=fixed;fontColor=#000000;fillColor=#000000;container=0;" vertex="1" parent="D1VgD2juVWL0YW8bx5-5-42">
          <mxGeometry x="110.6295466044823" y="76.85360000000014" width="2.5105769738052994" height="2.5124900372854664" as="geometry" />
        </mxCell>
        <mxCell id="D1VgD2juVWL0YW8bx5-5-12" value="" style="endArrow=classic;startArrow=classic;html=1;rounded=0;movable=1;resizable=1;rotatable=1;deletable=1;editable=1;locked=0;connectable=1;strokeWidth=1.5;sourcePerimeterSpacing=0;" edge="1" parent="D1VgD2juVWL0YW8bx5-5-42">
          <mxGeometry width="50" height="50" relative="1" as="geometry">
            <mxPoint x="44.74973546237135" y="398.11" as="sourcePoint" />
            <mxPoint x="43.74973546237135" y="52.110000000000014" as="targetPoint" />
          </mxGeometry>
        </mxCell>
        <mxCell id="D1VgD2juVWL0YW8bx5-5-14" value="&lt;span style=&quot;font-weight: normal;&quot;&gt;&lt;font style=&quot;font-size: 20px;&quot;&gt;98 mm&lt;/font&gt;&lt;/span&gt;" style="text;align=center;html=1;verticalAlign=middle;rounded=0;shadow=0;glass=0;labelBorderColor=none;labelBackgroundColor=none;whiteSpace=wrap;fontStyle=1;direction=east;rotation=-90;container=0;" vertex="1" parent="D1VgD2juVWL0YW8bx5-5-42">
          <mxGeometry x="-60.24604587523378" y="194.7197247706423" width="159.02420184221066" height="38.53211009174312" as="geometry" />
        </mxCell>
        <mxCell id="D1VgD2juVWL0YW8bx5-5-16" value="" style="endArrow=classic;startArrow=classic;html=1;rounded=0;movable=1;resizable=1;rotatable=1;deletable=1;editable=1;locked=0;connectable=1;strokeWidth=1.5;sourcePerimeterSpacing=0;" edge="1" parent="D1VgD2juVWL0YW8bx5-5-42">
          <mxGeometry width="50" height="50" relative="1" as="geometry">
            <mxPoint x="154.74973546237135" y="417.11" as="sourcePoint" />
            <mxPoint x="68.74973546237135" y="417.11" as="targetPoint" />
          </mxGeometry>
        </mxCell>
        <mxCell id="D1VgD2juVWL0YW8bx5-5-17" value="&lt;span style=&quot;font-weight: normal;&quot;&gt;&lt;font style=&quot;font-size: 20px;&quot;&gt;23 mm&lt;/font&gt;&lt;/span&gt;" style="text;align=center;html=1;verticalAlign=middle;rounded=0;shadow=0;glass=0;labelBorderColor=none;labelBackgroundColor=none;whiteSpace=wrap;fontStyle=1;direction=east;rotation=0;container=0;" vertex="1" parent="D1VgD2juVWL0YW8bx5-5-42">
          <mxGeometry x="31.75395412476621" y="417.1097247706423" width="159.02420184221066" height="38.53211009174312" as="geometry" />
        </mxCell>
        <mxCell id="D1VgD2juVWL0YW8bx5-5-18" value="2 mm" style="text;align=center;html=1;verticalAlign=middle;rounded=0;shadow=0;glass=0;labelBorderColor=none;labelBackgroundColor=none;whiteSpace=wrap;fontStyle=0;container=0;rotation=0;fontSize=7;" vertex="1" parent="D1VgD2juVWL0YW8bx5-5-42">
          <mxGeometry x="139.74973546237135" y="207.11" width="42" height="11.29" as="geometry" />
        </mxCell>
        <mxCell id="D1VgD2juVWL0YW8bx5-5-19" value="" style="endArrow=classic;startArrow=classic;html=1;rounded=0;movable=1;resizable=1;rotatable=1;deletable=1;editable=1;locked=0;connectable=1;sourcePerimeterSpacing=0;strokeWidth=0.5;endSize=3;startSize=3;" edge="1" parent="D1VgD2juVWL0YW8bx5-5-42">
          <mxGeometry width="50" height="50" relative="1" as="geometry">
            <mxPoint x="147.74973546237135" y="219.11" as="sourcePoint" />
            <mxPoint x="156.74973546237135" y="219.11" as="targetPoint" />
          </mxGeometry>
        </mxCell>
        <mxCell id="D1VgD2juVWL0YW8bx5-5-20" value="2.5 mm" style="text;align=center;html=1;verticalAlign=middle;rounded=0;shadow=0;glass=0;labelBorderColor=none;labelBackgroundColor=none;whiteSpace=wrap;fontStyle=0;container=0;rotation=0;fontSize=7;" vertex="1" parent="D1VgD2juVWL0YW8bx5-5-42">
          <mxGeometry x="70.74973546237135" y="385.11" width="50" height="20" as="geometry" />
        </mxCell>
        <mxCell id="D1VgD2juVWL0YW8bx5-5-21" value="" style="endArrow=classic;startArrow=classic;html=1;rounded=0;movable=1;resizable=1;rotatable=1;deletable=1;editable=1;locked=0;connectable=1;sourcePerimeterSpacing=0;strokeWidth=0.5;endSize=3;startSize=3;" edge="1" parent="D1VgD2juVWL0YW8bx5-5-42">
          <mxGeometry width="50" height="50" relative="1" as="geometry">
            <mxPoint x="111.74973546237135" y="400.11" as="sourcePoint" />
            <mxPoint x="111.74973546237135" y="390.11" as="targetPoint" />
          </mxGeometry>
        </mxCell>
        <mxCell id="D1VgD2juVWL0YW8bx5-5-22" value="" style="endArrow=classic;startArrow=classic;html=1;rounded=0;movable=1;resizable=1;rotatable=1;deletable=1;editable=1;locked=0;connectable=1;sourcePerimeterSpacing=0;strokeWidth=1;endSize=5;startSize=5;" edge="1" parent="D1VgD2juVWL0YW8bx5-5-42">
          <mxGeometry width="50" height="50" relative="1" as="geometry">
            <mxPoint x="147.74973546237135" y="108.11000000000001" as="sourcePoint" />
            <mxPoint x="147.74973546237135" y="50.110000000000014" as="targetPoint" />
          </mxGeometry>
        </mxCell>
        <mxCell id="D1VgD2juVWL0YW8bx5-5-23" value="&lt;span style=&quot;font-size: 11px;&quot;&gt;&lt;font style=&quot;font-size: 11px;&quot;&gt;16 mm&lt;/font&gt;&lt;/span&gt;" style="text;align=center;html=1;verticalAlign=middle;rounded=0;shadow=0;glass=0;labelBorderColor=none;labelBackgroundColor=none;whiteSpace=wrap;fontStyle=0;container=0;rotation=-90;fontSize=11;" vertex="1" parent="D1VgD2juVWL0YW8bx5-5-42">
          <mxGeometry x="108.74973546237135" y="70.11000000000001" width="56" height="16.3" as="geometry" />
        </mxCell>
        <mxCell id="D1VgD2juVWL0YW8bx5-5-24" value="" style="endArrow=none;html=1;rounded=0;dashed=1;" edge="1" parent="D1VgD2juVWL0YW8bx5-5-42">
          <mxGeometry width="50" height="50" relative="1" as="geometry">
            <mxPoint x="111.74973546237135" y="109.11000000000001" as="sourcePoint" />
            <mxPoint x="111.74973546237135" y="79.11000000000001" as="targetPoint" />
          </mxGeometry>
        </mxCell>
        <mxCell id="D1VgD2juVWL0YW8bx5-5-25" value="" style="endArrow=classic;startArrow=classic;html=1;rounded=0;movable=1;resizable=1;rotatable=1;deletable=1;editable=1;locked=0;connectable=1;sourcePerimeterSpacing=0;strokeWidth=1;endSize=5;startSize=5;" edge="1" parent="D1VgD2juVWL0YW8bx5-5-42">
          <mxGeometry width="50" height="50" relative="1" as="geometry">
            <mxPoint x="111.74973546237135" y="75.11000000000001" as="sourcePoint" />
            <mxPoint x="111.74973546237135" y="50.110000000000014" as="targetPoint" />
          </mxGeometry>
        </mxCell>
        <mxCell id="D1VgD2juVWL0YW8bx5-5-26" value="&lt;span style=&quot;font-size: 11px;&quot;&gt;&lt;font style=&quot;font-size: 11px;&quot;&gt;8 mm&lt;/font&gt;&lt;/span&gt;" style="text;align=center;html=1;verticalAlign=middle;rounded=0;shadow=0;glass=0;labelBorderColor=none;labelBackgroundColor=none;whiteSpace=wrap;fontStyle=0;container=0;rotation=-90;fontSize=11;" vertex="1" parent="D1VgD2juVWL0YW8bx5-5-42">
          <mxGeometry x="69.74973546237135" y="59.110000000000014" width="56" height="16.3" as="geometry" />
        </mxCell>
        <mxCell id="D1VgD2juVWL0YW8bx5-5-27" value="" style="endArrow=classic;startArrow=classic;html=1;rounded=0;movable=1;resizable=1;rotatable=1;deletable=1;editable=1;locked=0;connectable=1;sourcePerimeterSpacing=0;strokeWidth=0.5;endSize=3;startSize=3;" edge="1" parent="D1VgD2juVWL0YW8bx5-5-42">
          <mxGeometry width="50" height="50" relative="1" as="geometry">
            <mxPoint x="103.74973546237135" y="89.11000000000001" as="sourcePoint" />
            <mxPoint x="120.74973546237135" y="89.11000000000001" as="targetPoint" />
          </mxGeometry>
        </mxCell>
        <mxCell id="D1VgD2juVWL0YW8bx5-5-28" value="&lt;span style=&quot;font-size: 9px;&quot;&gt;&lt;font style=&quot;font-size: 9px;&quot;&gt;3.5 mm&lt;/font&gt;&lt;/span&gt;" style="text;align=center;html=1;verticalAlign=middle;rounded=0;shadow=0;glass=0;labelBorderColor=none;labelBackgroundColor=none;whiteSpace=wrap;fontStyle=0;container=0;rotation=0;fontSize=9;" vertex="1" parent="D1VgD2juVWL0YW8bx5-5-42">
          <mxGeometry x="84.74973546237135" y="89.11000000000001" width="56" height="16.3" as="geometry" />
        </mxCell>
        <mxCell id="D1VgD2juVWL0YW8bx5-5-29" value="" style="endArrow=classic;startArrow=classic;html=1;rounded=0;movable=1;resizable=1;rotatable=1;deletable=1;editable=1;locked=0;connectable=1;sourcePerimeterSpacing=0;strokeWidth=1;endSize=5;startSize=5;" edge="1" parent="D1VgD2juVWL0YW8bx5-5-42">
          <mxGeometry width="50" height="50" relative="1" as="geometry">
            <mxPoint x="83.74973546237135" y="387.11" as="sourcePoint" />
            <mxPoint x="83.74973546237135" y="358.11" as="targetPoint" />
          </mxGeometry>
        </mxCell>
        <mxCell id="D1VgD2juVWL0YW8bx5-5-30" value="&lt;span style=&quot;font-size: 9px;&quot;&gt;&lt;font style=&quot;font-size: 9px;&quot;&gt;8 mm&lt;/font&gt;&lt;/span&gt;" style="text;align=center;html=1;verticalAlign=middle;rounded=0;shadow=0;glass=0;labelBorderColor=none;labelBackgroundColor=none;whiteSpace=wrap;fontStyle=0;container=0;rotation=-90;fontSize=9;" vertex="1" parent="D1VgD2juVWL0YW8bx5-5-42">
          <mxGeometry x="65.74973546237135" y="365.11" width="56" height="16.3" as="geometry" />
        </mxCell>
        <mxCell id="D1VgD2juVWL0YW8bx5-5-32" value="" style="endArrow=classic;startArrow=classic;html=1;rounded=0;movable=1;resizable=1;rotatable=1;deletable=1;editable=1;locked=0;connectable=1;sourcePerimeterSpacing=0;strokeWidth=0.5;endSize=3;startSize=3;" edge="1" parent="D1VgD2juVWL0YW8bx5-5-42">
          <mxGeometry width="50" height="50" relative="1" as="geometry">
            <mxPoint x="111.74973546237135" y="357.11" as="sourcePoint" />
            <mxPoint x="111.74973546237135" y="347.11" as="targetPoint" />
          </mxGeometry>
        </mxCell>
        <mxCell id="D1VgD2juVWL0YW8bx5-5-33" value="2 mm" style="text;align=center;html=1;verticalAlign=middle;rounded=0;shadow=0;glass=0;labelBorderColor=none;labelBackgroundColor=none;whiteSpace=wrap;fontStyle=0;container=0;rotation=0;fontSize=7;" vertex="1" parent="D1VgD2juVWL0YW8bx5-5-42">
          <mxGeometry x="103.74973546237135" y="346.11" width="42" height="11.29" as="geometry" />
        </mxCell>
        <mxCell id="D1VgD2juVWL0YW8bx5-5-34" value="" style="endArrow=classic;startArrow=classic;html=1;rounded=0;movable=1;resizable=1;rotatable=1;deletable=1;editable=1;locked=0;connectable=1;sourcePerimeterSpacing=0;strokeWidth=0.5;endSize=3;startSize=3;" edge="1" parent="D1VgD2juVWL0YW8bx5-5-42">
          <mxGeometry width="50" height="50" relative="1" as="geometry">
            <mxPoint x="106.74973546237135" y="264.11" as="sourcePoint" />
            <mxPoint x="116.74973546237135" y="264.11" as="targetPoint" />
          </mxGeometry>
        </mxCell>
        <mxCell id="D1VgD2juVWL0YW8bx5-5-35" value="2 mm" style="text;align=center;html=1;verticalAlign=middle;rounded=0;shadow=0;glass=0;labelBorderColor=none;labelBackgroundColor=none;whiteSpace=wrap;fontStyle=0;container=0;rotation=0;fontSize=7;" vertex="1" parent="D1VgD2juVWL0YW8bx5-5-42">
          <mxGeometry x="99.74973546237135" y="252.11" width="42" height="11.29" as="geometry" />
        </mxCell>
        <mxCell id="D1VgD2juVWL0YW8bx5-5-36" value="" style="endArrow=none;html=1;rounded=0;strokeWidth=1.5;" edge="1" parent="D1VgD2juVWL0YW8bx5-5-42">
          <mxGeometry width="50" height="50" relative="1" as="geometry">
            <mxPoint x="66.74973546237135" y="111.40999999999997" as="sourcePoint" />
            <mxPoint x="76.74973546237135" y="111.40999999999997" as="targetPoint" />
          </mxGeometry>
        </mxCell>
        <mxCell id="D1VgD2juVWL0YW8bx5-5-37" value="" style="endArrow=none;html=1;rounded=0;strokeWidth=1.5;" edge="1" parent="D1VgD2juVWL0YW8bx5-5-42">
          <mxGeometry width="50" height="50" relative="1" as="geometry">
            <mxPoint x="146.74973546237135" y="111.40999999999997" as="sourcePoint" />
            <mxPoint x="156.74973546237135" y="111.40999999999997" as="targetPoint" />
          </mxGeometry>
        </mxCell>
        <mxCell id="D1VgD2juVWL0YW8bx5-5-39" value="&lt;span style=&quot;font-weight: normal; font-size: 7px;&quot;&gt;&lt;font style=&quot;font-size: 7px;&quot;&gt;(1)&lt;/font&gt;&lt;/span&gt;" style="text;align=center;html=1;verticalAlign=middle;rounded=0;shadow=0;glass=0;labelBorderColor=none;labelBackgroundColor=none;whiteSpace=wrap;fontStyle=1;container=0;rotation=0;fontSize=7;perimeterSpacing=1;" vertex="1" parent="D1VgD2juVWL0YW8bx5-5-42">
          <mxGeometry x="102.74973546237135" y="402.1070000000001" width="17.25" height="9.19" as="geometry" />
        </mxCell>
        <mxCell id="D1VgD2juVWL0YW8bx5-5-188" value="" style="endArrow=none;html=1;rounded=0;strokeWidth=1.5;" edge="1" parent="D1VgD2juVWL0YW8bx5-5-42">
          <mxGeometry width="50" height="50" relative="1" as="geometry">
            <mxPoint x="67.02973546237135" y="390.11" as="sourcePoint" />
            <mxPoint x="77.02973546237135" y="390.11" as="targetPoint" />
          </mxGeometry>
        </mxCell>
        <mxCell id="D1VgD2juVWL0YW8bx5-5-189" value="" style="endArrow=none;html=1;rounded=0;strokeWidth=1.5;" edge="1" parent="D1VgD2juVWL0YW8bx5-5-42">
          <mxGeometry width="50" height="50" relative="1" as="geometry">
            <mxPoint x="147.02973546237132" y="390.11" as="sourcePoint" />
            <mxPoint x="157.02973546237132" y="390.11" as="targetPoint" />
          </mxGeometry>
        </mxCell>
        <mxCell id="D1VgD2juVWL0YW8bx5-5-222" value="" style="endArrow=none;startArrow=classic;html=1;rounded=0;movable=1;resizable=1;rotatable=1;deletable=1;editable=1;locked=0;connectable=1;sourcePerimeterSpacing=0;strokeWidth=1;endSize=5;startSize=5;endFill=0;strokeColor=#323232;dashed=1;" edge="1" parent="D1VgD2juVWL0YW8bx5-5-324">
          <mxGeometry width="50" height="50" relative="1" as="geometry">
            <mxPoint x="202.74973546237135" y="346.1082" as="sourcePoint" />
            <mxPoint x="110.74973546237135" y="395.1082" as="targetPoint" />
          </mxGeometry>
        </mxCell>
        <mxCell id="D1VgD2juVWL0YW8bx5-5-207" value="" style="ellipse;whiteSpace=wrap;html=1;aspect=fixed;fillColor=none;dashed=1;strokeColor=#303030;" vertex="1" parent="D1VgD2juVWL0YW8bx5-5-324">
          <mxGeometry x="208.7495354623714" y="298.9570000000001" width="73" height="73" as="geometry" />
        </mxCell>
        <mxCell id="D1VgD2juVWL0YW8bx5-5-208" value="" style="group" vertex="1" connectable="0" parent="D1VgD2juVWL0YW8bx5-5-324">
          <mxGeometry x="214.74973546237135" y="305.1082" width="61.32" height="60.63" as="geometry" />
        </mxCell>
        <mxCell id="D1VgD2juVWL0YW8bx5-5-209" value="" style="verticalLabelPosition=bottom;verticalAlign=top;html=1;shape=mxgraph.basic.arc;startAngle=0.24204887437191183;endAngle=0.241968695566054;" vertex="1" parent="D1VgD2juVWL0YW8bx5-5-208">
          <mxGeometry x="0.34778507462686153" width="60.63358208955224" height="60.629999999999995" as="geometry" />
        </mxCell>
        <mxCell id="D1VgD2juVWL0YW8bx5-5-212" value="" style="ellipse;whiteSpace=wrap;html=1;aspect=fixed;fillColor=none;strokeWidth=1;dashed=1;dashPattern=1 1;" vertex="1" parent="D1VgD2juVWL0YW8bx5-5-208">
          <mxGeometry x="27.1" y="26.81" width="7" height="7" as="geometry" />
        </mxCell>
        <mxCell id="D1VgD2juVWL0YW8bx5-5-213" value="" style="ellipse;whiteSpace=wrap;html=1;aspect=fixed;fontColor=#000000;fillColor=#000000;container=0;" vertex="1" parent="D1VgD2juVWL0YW8bx5-5-208">
          <mxGeometry x="30.410000000000025" y="30.059999999999945" width="0.51" height="0.51" as="geometry" />
        </mxCell>
        <mxCell id="D1VgD2juVWL0YW8bx5-5-214" value="" style="endArrow=none;html=1;rounded=0;dashed=1;" edge="1" parent="D1VgD2juVWL0YW8bx5-5-208">
          <mxGeometry width="50" height="50" relative="1" as="geometry">
            <mxPoint x="60" y="30.149999999999977" as="sourcePoint" />
            <mxPoint x="30.410000000000025" y="30.289999999999964" as="targetPoint" />
          </mxGeometry>
        </mxCell>
        <mxCell id="D1VgD2juVWL0YW8bx5-5-216" value="" style="endArrow=none;html=1;rounded=0;dashed=1;" edge="1" parent="D1VgD2juVWL0YW8bx5-5-208">
          <mxGeometry width="50" height="50" relative="1" as="geometry">
            <mxPoint x="30.629999999999995" y="32" as="sourcePoint" />
            <mxPoint x="30.629999999999995" y="60" as="targetPoint" />
          </mxGeometry>
        </mxCell>
        <mxCell id="D1VgD2juVWL0YW8bx5-5-219" value="2.5 mm" style="text;align=center;html=1;verticalAlign=middle;rounded=0;shadow=0;glass=0;labelBorderColor=none;labelBackgroundColor=none;whiteSpace=wrap;fontStyle=0;container=0;rotation=0;fontSize=7;" vertex="1" parent="D1VgD2juVWL0YW8bx5-5-324">
          <mxGeometry x="233.74973546237135" y="315.1082" width="26" height="9.85" as="geometry" />
        </mxCell>
        <mxCell id="D1VgD2juVWL0YW8bx5-5-220" value="" style="endArrow=classic;startArrow=classic;html=1;rounded=0;movable=1;resizable=1;rotatable=1;deletable=1;editable=1;locked=0;connectable=1;sourcePerimeterSpacing=0;strokeWidth=0.5;endSize=3;startSize=3;" edge="1" parent="D1VgD2juVWL0YW8bx5-5-324">
          <mxGeometry width="50" height="50" relative="1" as="geometry">
            <mxPoint x="240.74973546237135" y="326.1082" as="sourcePoint" />
            <mxPoint x="250.74973546237135" y="326.1082" as="targetPoint" />
          </mxGeometry>
        </mxCell>
        <mxCell id="D1VgD2juVWL0YW8bx5-5-224" value="" style="endArrow=none;startArrow=classic;html=1;rounded=0;movable=1;resizable=1;rotatable=1;deletable=1;editable=1;locked=0;connectable=1;sourcePerimeterSpacing=0;strokeWidth=1;endSize=5;startSize=5;endFill=0;strokeColor=#323232;dashed=1;" edge="1" parent="D1VgD2juVWL0YW8bx5-5-324">
          <mxGeometry width="50" height="50" relative="1" as="geometry">
            <mxPoint x="209.74973546237135" y="266.1082" as="sourcePoint" />
            <mxPoint x="112.74973546237135" y="349.1082" as="targetPoint" />
          </mxGeometry>
        </mxCell>
        <mxCell id="D1VgD2juVWL0YW8bx5-5-225" value="" style="ellipse;whiteSpace=wrap;html=1;aspect=fixed;fillColor=none;dashed=1;strokeColor=#303030;" vertex="1" parent="D1VgD2juVWL0YW8bx5-5-324">
          <mxGeometry x="208.7495354623714" y="208.10700000000008" width="73" height="73" as="geometry" />
        </mxCell>
        <mxCell id="D1VgD2juVWL0YW8bx5-5-226" value="" style="group" vertex="1" connectable="0" parent="D1VgD2juVWL0YW8bx5-5-324">
          <mxGeometry x="214.74973546237135" y="214.2582" width="61.32" height="60.63" as="geometry" />
        </mxCell>
        <mxCell id="D1VgD2juVWL0YW8bx5-5-227" value="" style="verticalLabelPosition=bottom;verticalAlign=top;html=1;shape=mxgraph.basic.arc;startAngle=0.5251608003572712;endAngle=0.47741638234956674;" vertex="1" parent="D1VgD2juVWL0YW8bx5-5-226">
          <mxGeometry x="0.34778507462686153" width="60.63358208955224" height="60.629999999999995" as="geometry" />
        </mxCell>
        <mxCell id="D1VgD2juVWL0YW8bx5-5-228" value="" style="ellipse;whiteSpace=wrap;html=1;aspect=fixed;fillColor=none;strokeWidth=1;dashed=1;dashPattern=1 1;" vertex="1" parent="D1VgD2juVWL0YW8bx5-5-226">
          <mxGeometry x="23.62" y="23.27" width="14.09" height="14.09" as="geometry" />
        </mxCell>
        <mxCell id="D1VgD2juVWL0YW8bx5-5-229" value="" style="ellipse;whiteSpace=wrap;html=1;aspect=fixed;fontColor=#000000;fillColor=#000000;container=0;" vertex="1" parent="D1VgD2juVWL0YW8bx5-5-226">
          <mxGeometry x="30.410000000000025" y="30.059999999999945" width="0.51" height="0.51" as="geometry" />
        </mxCell>
        <mxCell id="D1VgD2juVWL0YW8bx5-5-230" value="" style="endArrow=none;html=1;rounded=0;dashed=1;" edge="1" parent="D1VgD2juVWL0YW8bx5-5-226">
          <mxGeometry width="50" height="50" relative="1" as="geometry">
            <mxPoint x="60" y="30.149999999999977" as="sourcePoint" />
            <mxPoint x="30.410000000000025" y="30.289999999999964" as="targetPoint" />
          </mxGeometry>
        </mxCell>
        <mxCell id="D1VgD2juVWL0YW8bx5-5-231" value="" style="endArrow=none;html=1;rounded=0;dashed=1;" edge="1" parent="D1VgD2juVWL0YW8bx5-5-226">
          <mxGeometry width="50" height="50" relative="1" as="geometry">
            <mxPoint x="30.629999999999995" y="32" as="sourcePoint" />
            <mxPoint x="30.629999999999995" y="57" as="targetPoint" />
          </mxGeometry>
        </mxCell>
        <mxCell id="D1VgD2juVWL0YW8bx5-5-232" value="5 mm" style="text;align=center;html=1;verticalAlign=middle;rounded=0;shadow=0;glass=0;labelBorderColor=none;labelBackgroundColor=none;whiteSpace=wrap;fontStyle=0;container=0;rotation=0;fontSize=7;" vertex="1" parent="D1VgD2juVWL0YW8bx5-5-324">
          <mxGeometry x="231.74973546237135" y="221.1082" width="26" height="9.85" as="geometry" />
        </mxCell>
        <mxCell id="D1VgD2juVWL0YW8bx5-5-233" value="" style="endArrow=classic;startArrow=classic;html=1;rounded=0;movable=1;resizable=1;rotatable=1;deletable=1;editable=1;locked=0;connectable=1;sourcePerimeterSpacing=0;strokeWidth=0.5;endSize=3;startSize=3;" edge="1" parent="D1VgD2juVWL0YW8bx5-5-324">
          <mxGeometry width="50" height="50" relative="1" as="geometry">
            <mxPoint x="237.74973546237135" y="233.1082" as="sourcePoint" />
            <mxPoint x="253.74973546237135" y="233.1082" as="targetPoint" />
          </mxGeometry>
        </mxCell>
        <mxCell id="D1VgD2juVWL0YW8bx5-5-234" value="" style="verticalLabelPosition=bottom;verticalAlign=top;html=1;shape=mxgraph.basic.arc;startAngle=0.7690077039239749;endAngle=0.23080214689159811;" vertex="1" parent="D1VgD2juVWL0YW8bx5-5-324">
          <mxGeometry x="240.74973546237135" y="271.1082" width="9" height="9" as="geometry" />
        </mxCell>
        <mxCell id="D1VgD2juVWL0YW8bx5-5-235" value="" style="endArrow=classic;startArrow=classic;html=1;rounded=0;movable=1;resizable=1;rotatable=1;deletable=1;editable=1;locked=0;connectable=1;sourcePerimeterSpacing=0;strokeWidth=0.5;endSize=3;startSize=3;" edge="1" parent="D1VgD2juVWL0YW8bx5-5-324">
          <mxGeometry width="50" height="50" relative="1" as="geometry">
            <mxPoint x="240.74973546237135" y="277.1082" as="sourcePoint" />
            <mxPoint x="249.74973546237135" y="277.1082" as="targetPoint" />
          </mxGeometry>
        </mxCell>
        <mxCell id="D1VgD2juVWL0YW8bx5-5-237" value="2 mm" style="text;align=center;html=1;verticalAlign=middle;rounded=0;shadow=0;glass=0;labelBorderColor=none;labelBackgroundColor=none;whiteSpace=wrap;fontStyle=0;container=0;rotation=0;fontSize=7;" vertex="1" parent="D1VgD2juVWL0YW8bx5-5-324">
          <mxGeometry x="232.74973546237135" y="281.1082" width="26" height="9.85" as="geometry" />
        </mxCell>
        <mxCell id="D1VgD2juVWL0YW8bx5-5-239" value="" style="ellipse;whiteSpace=wrap;html=1;aspect=fixed;fillColor=none;dashed=1;strokeColor=#303030;" vertex="1" parent="D1VgD2juVWL0YW8bx5-5-324">
          <mxGeometry x="208.7495354623714" y="118.10700000000008" width="73" height="73" as="geometry" />
        </mxCell>
        <mxCell id="D1VgD2juVWL0YW8bx5-5-250" value="2 mm" style="text;align=center;html=1;verticalAlign=middle;rounded=0;shadow=0;glass=0;labelBorderColor=none;labelBackgroundColor=none;whiteSpace=wrap;fontStyle=0;container=0;rotation=0;fontSize=7;" vertex="1" parent="D1VgD2juVWL0YW8bx5-5-324">
          <mxGeometry x="231.74973546237135" y="180.1082" width="26" height="9.85" as="geometry" />
        </mxCell>
        <mxCell id="D1VgD2juVWL0YW8bx5-5-251" value="" style="endArrow=none;startArrow=classic;html=1;rounded=0;movable=1;resizable=1;rotatable=1;deletable=1;editable=1;locked=0;connectable=1;sourcePerimeterSpacing=0;strokeWidth=1;endSize=5;startSize=5;endFill=0;strokeColor=#323232;dashed=1;" edge="1" parent="D1VgD2juVWL0YW8bx5-5-324">
          <mxGeometry width="50" height="50" relative="1" as="geometry">
            <mxPoint x="203.74973546237135" y="146.1082" as="sourcePoint" />
            <mxPoint x="111.74973546237135" y="113.10820000000001" as="targetPoint" />
          </mxGeometry>
        </mxCell>
        <mxCell id="D1VgD2juVWL0YW8bx5-5-252" value="" style="group" vertex="1" connectable="0" parent="D1VgD2juVWL0YW8bx5-5-324">
          <mxGeometry x="220.74973546237135" y="130.1082" width="48.42" height="52" as="geometry" />
        </mxCell>
        <mxCell id="D1VgD2juVWL0YW8bx5-5-240" value="" style="group" vertex="1" connectable="0" parent="D1VgD2juVWL0YW8bx5-5-252">
          <mxGeometry width="48.42000000000001" height="47.87790432801821" as="geometry" />
        </mxCell>
        <mxCell id="D1VgD2juVWL0YW8bx5-5-241" value="" style="verticalLabelPosition=bottom;verticalAlign=top;html=1;shape=mxgraph.basic.arc;startAngle=0.5251608003572712;endAngle=0.47741638234956674;" vertex="1" parent="D1VgD2juVWL0YW8bx5-5-240">
          <mxGeometry x="0.27462089552238483" width="47.87798507462687" height="47.877904328018204" as="geometry" />
        </mxCell>
        <mxCell id="D1VgD2juVWL0YW8bx5-5-242" value="" style="ellipse;whiteSpace=wrap;html=1;aspect=fixed;fillColor=none;strokeWidth=1;dashed=1;dashPattern=1 1;" vertex="1" parent="D1VgD2juVWL0YW8bx5-5-240">
          <mxGeometry x="18.651017612524466" y="18.375702353834466" width="11.12586105675147" height="11.12586105675147" as="geometry" />
        </mxCell>
        <mxCell id="D1VgD2juVWL0YW8bx5-5-243" value="" style="ellipse;whiteSpace=wrap;html=1;aspect=fixed;fontColor=#000000;fillColor=#000000;container=0;" vertex="1" parent="D1VgD2juVWL0YW8bx5-5-240">
          <mxGeometry x="24.01259295499024" y="23.73758542141225" width="0.40271037181996094" height="0.40271037181996094" as="geometry" />
        </mxCell>
        <mxCell id="D1VgD2juVWL0YW8bx5-5-244" value="" style="endArrow=none;html=1;rounded=0;dashed=1;" edge="1" parent="D1VgD2juVWL0YW8bx5-5-240">
          <mxGeometry width="50" height="50" relative="1" as="geometry">
            <mxPoint x="47.37769080234834" y="23.808656036446443" as="sourcePoint" />
            <mxPoint x="24.01259295499024" y="23.919210326499584" as="targetPoint" />
          </mxGeometry>
        </mxCell>
        <mxCell id="D1VgD2juVWL0YW8bx5-5-245" value="" style="endArrow=none;html=1;rounded=0;dashed=1;" edge="1" parent="D1VgD2juVWL0YW8bx5-5-240">
          <mxGeometry width="50" height="50" relative="1" as="geometry">
            <mxPoint x="24.186311154598826" y="25.269552012148814" as="sourcePoint" />
            <mxPoint x="24.186311154598826" y="45.011389521640076" as="targetPoint" />
          </mxGeometry>
        </mxCell>
        <mxCell id="D1VgD2juVWL0YW8bx5-5-246" value="5 mm" style="text;align=center;html=1;verticalAlign=middle;rounded=0;shadow=0;glass=0;labelBorderColor=none;labelBackgroundColor=none;whiteSpace=wrap;fontStyle=0;container=0;rotation=0;fontSize=7;" vertex="1" parent="D1VgD2juVWL0YW8bx5-5-252">
          <mxGeometry x="13.423679060665364" y="5.409263477600623" width="20.530332681017615" height="7.778283978739557" as="geometry" />
        </mxCell>
        <mxCell id="D1VgD2juVWL0YW8bx5-5-247" value="" style="endArrow=classic;startArrow=classic;html=1;rounded=0;movable=1;resizable=1;rotatable=1;deletable=1;editable=1;locked=0;connectable=1;sourcePerimeterSpacing=0;strokeWidth=0.5;endSize=3;startSize=3;" edge="1" parent="D1VgD2juVWL0YW8bx5-5-252">
          <mxGeometry width="50" height="50" relative="1" as="geometry">
            <mxPoint x="18.161448140900198" y="14.88534548215643" as="sourcePoint" />
            <mxPoint x="30.79549902152642" y="14.88534548215643" as="targetPoint" />
          </mxGeometry>
        </mxCell>
        <mxCell id="D1VgD2juVWL0YW8bx5-5-248" value="" style="verticalLabelPosition=bottom;verticalAlign=top;html=1;shape=mxgraph.basic.arc;startAngle=0.7690077039239749;endAngle=0.23080214689159811;" vertex="1" parent="D1VgD2juVWL0YW8bx5-5-252">
          <mxGeometry x="20.530332681017615" y="44.89293849658315" width="7.106653620352251" height="7.107061503416854" as="geometry" />
        </mxCell>
        <mxCell id="D1VgD2juVWL0YW8bx5-5-249" value="" style="endArrow=classic;startArrow=classic;html=1;rounded=0;movable=1;resizable=1;rotatable=1;deletable=1;editable=1;locked=0;connectable=1;sourcePerimeterSpacing=0;strokeWidth=0.5;endSize=3;startSize=3;" edge="1" parent="D1VgD2juVWL0YW8bx5-5-252">
          <mxGeometry width="50" height="50" relative="1" as="geometry">
            <mxPoint x="19.000332681017614" y="50.00097949886105" as="sourcePoint" />
            <mxPoint x="28.47" y="50.00097949886105" as="targetPoint" />
          </mxGeometry>
        </mxCell>
        <mxCell id="D1VgD2juVWL0YW8bx5-5-277" value="" style="endArrow=none;startArrow=classic;html=1;rounded=0;movable=1;resizable=1;rotatable=1;deletable=1;editable=1;locked=0;connectable=1;sourcePerimeterSpacing=0;strokeWidth=1;endSize=5;startSize=5;endFill=0;strokeColor=#323232;dashed=1;" edge="1" parent="D1VgD2juVWL0YW8bx5-5-324">
          <mxGeometry width="50" height="50" relative="1" as="geometry">
            <mxPoint x="272.74973546237135" y="148.1082" as="sourcePoint" />
            <mxPoint x="310.74973546237135" y="148.1082" as="targetPoint" />
          </mxGeometry>
        </mxCell>
        <mxCell id="D1VgD2juVWL0YW8bx5-5-278" value="Projected position from the side cap centering supports (2)&amp;nbsp;" style="text;align=center;html=1;verticalAlign=middle;rounded=0;shadow=0;glass=0;labelBorderColor=none;labelBackgroundColor=none;whiteSpace=wrap;fontStyle=0;container=0;rotation=0;fontSize=7;" vertex="1" parent="D1VgD2juVWL0YW8bx5-5-324">
          <mxGeometry x="312.74973546237135" y="143.1082" width="62" height="9.85" as="geometry" />
        </mxCell>
        <mxCell id="D1VgD2juVWL0YW8bx5-5-368" value="" style="group" vertex="1" connectable="0" parent="1">
          <mxGeometry x="90" y="-520.0776999999999" width="267.0284205046055" height="368.53023486238544" as="geometry" />
        </mxCell>
        <mxCell id="D1VgD2juVWL0YW8bx5-5-338" value="" style="group" vertex="1" connectable="0" parent="D1VgD2juVWL0YW8bx5-5-368">
          <mxGeometry y="54.99660000000006" width="267.0284205046055" height="313.5336348623854" as="geometry" />
        </mxCell>
        <mxCell id="GqTtiQfWc4EN4lTiexEj-30" value="" style="ellipse;whiteSpace=wrap;html=1;aspect=fixed;fillColor=none;strokeWidth=1.5;" parent="D1VgD2juVWL0YW8bx5-5-338" vertex="1">
          <mxGeometry width="257.04" height="257.04" as="geometry" />
        </mxCell>
        <mxCell id="GqTtiQfWc4EN4lTiexEj-33" value="" style="verticalLabelPosition=bottom;verticalAlign=top;html=1;shape=mxgraph.basic.arc;startAngle=0.2612346821505031;endAngle=0.24036602983634126;rotation=90;strokeWidth=1.5;dashed=1;dashPattern=1 1;" parent="D1VgD2juVWL0YW8bx5-5-338" vertex="1">
          <mxGeometry x="10" y="9.230000000000018" width="237.04" height="237.04" as="geometry" />
        </mxCell>
        <mxCell id="D1VgD2juVWL0YW8bx5-5-327" value="" style="verticalLabelPosition=bottom;verticalAlign=top;html=1;shape=mxgraph.basic.arc;startAngle=0.2789103092013613;endAngle=0.22266352288990449;rotation=90;strokeWidth=1.5;dashed=1;dashPattern=1 1;" vertex="1" parent="D1VgD2juVWL0YW8bx5-5-338">
          <mxGeometry x="23.620000000000005" y="22.860000000000014" width="209.79" height="209.79" as="geometry" />
        </mxCell>
        <mxCell id="GqTtiQfWc4EN4lTiexEj-38" value="" style="ellipse;whiteSpace=wrap;html=1;aspect=fixed;fontColor=#000000;fillColor=#000000;container=0;" parent="D1VgD2juVWL0YW8bx5-5-338" vertex="1">
          <mxGeometry x="127.25981114211092" y="127.26520000000005" width="2.5105769738052994" height="2.5124900372854664" as="geometry" />
        </mxCell>
        <mxCell id="D1VgD2juVWL0YW8bx5-5-326" value="" style="verticalLabelPosition=bottom;verticalAlign=top;html=1;shape=mxgraph.basic.arc;startAngle=0.2820406129267909;endAngle=0.2179593870732091;rotation=90;strokeWidth=1.5;" vertex="1" parent="D1VgD2juVWL0YW8bx5-5-338">
          <mxGeometry x="33.25" y="32.48000000000002" width="190.54" height="190.54" as="geometry" />
        </mxCell>
        <mxCell id="D1VgD2juVWL0YW8bx5-5-328" value="" style="endArrow=classic;startArrow=classic;html=1;rounded=0;movable=1;resizable=1;rotatable=1;deletable=1;editable=1;locked=0;connectable=1;strokeWidth=1.5;sourcePerimeterSpacing=0;" edge="1" parent="D1VgD2juVWL0YW8bx5-5-338">
          <mxGeometry width="50" height="50" relative="1" as="geometry">
            <mxPoint x="253" y="274" as="sourcePoint" />
            <mxPoint x="3" y="274" as="targetPoint" />
          </mxGeometry>
        </mxCell>
        <mxCell id="D1VgD2juVWL0YW8bx5-5-329" value="&lt;span style=&quot;font-weight: normal;&quot;&gt;&lt;font style=&quot;font-size: 20px;&quot;&gt;23 mm&lt;/font&gt;&lt;/span&gt;" style="text;align=center;html=1;verticalAlign=middle;rounded=0;shadow=0;glass=0;labelBorderColor=none;labelBackgroundColor=none;whiteSpace=wrap;fontStyle=1;direction=east;rotation=0;container=0;" vertex="1" parent="D1VgD2juVWL0YW8bx5-5-338">
          <mxGeometry x="49.00421866239486" y="275.0015247706423" width="159.02420184221066" height="38.53211009174312" as="geometry" />
        </mxCell>
        <mxCell id="D1VgD2juVWL0YW8bx5-5-330" value="" style="endArrow=classic;startArrow=classic;html=1;rounded=0;movable=1;resizable=1;rotatable=1;deletable=1;editable=1;locked=0;connectable=1;strokeWidth=1.5;sourcePerimeterSpacing=0;" edge="1" parent="D1VgD2juVWL0YW8bx5-5-338">
          <mxGeometry width="50" height="50" relative="1" as="geometry">
            <mxPoint x="220" y="128" as="sourcePoint" />
            <mxPoint x="134" y="128" as="targetPoint" />
          </mxGeometry>
        </mxCell>
        <mxCell id="D1VgD2juVWL0YW8bx5-5-331" value="&lt;span style=&quot;font-weight: normal; font-size: 18px;&quot;&gt;&lt;font style=&quot;font-size: 18px;&quot;&gt;9.5 mm&lt;/font&gt;&lt;/span&gt;" style="text;align=center;html=1;verticalAlign=middle;rounded=0;shadow=0;glass=0;labelBorderColor=none;labelBackgroundColor=none;whiteSpace=wrap;fontStyle=1;direction=east;rotation=0;container=0;fontSize=18;" vertex="1" parent="D1VgD2juVWL0YW8bx5-5-338">
          <mxGeometry x="157" y="132" width="62" height="21.53" as="geometry" />
        </mxCell>
        <mxCell id="D1VgD2juVWL0YW8bx5-5-332" value="" style="endArrow=classic;startArrow=classic;html=1;rounded=0;movable=1;resizable=1;rotatable=1;deletable=1;editable=1;locked=0;connectable=1;sourcePerimeterSpacing=0;strokeWidth=0.5;endSize=3;startSize=3;" edge="1" parent="D1VgD2juVWL0YW8bx5-5-338">
          <mxGeometry width="50" height="50" relative="1" as="geometry">
            <mxPoint x="130" y="21.001800000000003" as="sourcePoint" />
            <mxPoint x="130" y="11.001800000000003" as="targetPoint" />
          </mxGeometry>
        </mxCell>
        <mxCell id="D1VgD2juVWL0YW8bx5-5-333" value="0.85 mm" style="text;align=center;html=1;verticalAlign=middle;rounded=0;shadow=0;glass=0;labelBorderColor=none;labelBackgroundColor=none;whiteSpace=wrap;fontStyle=0;container=0;rotation=6.8;fontSize=7;" vertex="1" parent="D1VgD2juVWL0YW8bx5-5-338">
          <mxGeometry x="126" y="12.001800000000003" width="42" height="11.29" as="geometry" />
        </mxCell>
        <mxCell id="D1VgD2juVWL0YW8bx5-5-334" value="" style="ellipse;whiteSpace=wrap;html=1;aspect=fixed;fillColor=none;strokeWidth=1.5;dashed=1;dashPattern=1 1;" vertex="1" parent="D1VgD2juVWL0YW8bx5-5-338">
          <mxGeometry x="99.86999999999998" y="99.88" width="57.29" height="57.29" as="geometry" />
        </mxCell>
        <mxCell id="D1VgD2juVWL0YW8bx5-5-335" value="" style="verticalLabelPosition=bottom;verticalAlign=top;html=1;shape=mxgraph.basic.arc;startAngle=0.29061353885731017;endAngle=0.2901456340308139;rotation=-180;strokeWidth=1.5;" vertex="1" parent="D1VgD2juVWL0YW8bx5-5-338">
          <mxGeometry x="109.03" y="207.26999999999998" width="39" height="39" as="geometry" />
        </mxCell>
        <mxCell id="D1VgD2juVWL0YW8bx5-5-336" value="" style="endArrow=classic;startArrow=classic;html=1;rounded=0;movable=1;resizable=1;rotatable=1;deletable=1;editable=1;locked=0;connectable=1;sourcePerimeterSpacing=0;strokeWidth=1;endSize=5;startSize=5;" edge="1" parent="D1VgD2juVWL0YW8bx5-5-338">
          <mxGeometry width="50" height="50" relative="1" as="geometry">
            <mxPoint x="145" y="199" as="sourcePoint" />
            <mxPoint x="111" y="199.0018" as="targetPoint" />
          </mxGeometry>
        </mxCell>
        <mxCell id="D1VgD2juVWL0YW8bx5-5-337" value="&lt;span style=&quot;font-weight: normal; font-size: 14px;&quot;&gt;&lt;font style=&quot;font-size: 14px;&quot;&gt;2 mm&lt;/font&gt;&lt;/span&gt;" style="text;align=center;html=1;verticalAlign=middle;rounded=0;shadow=0;glass=0;labelBorderColor=none;labelBackgroundColor=none;whiteSpace=wrap;fontStyle=1;direction=east;rotation=0;container=0;fontSize=14;" vertex="1" parent="D1VgD2juVWL0YW8bx5-5-338">
          <mxGeometry x="99" y="178" width="56" height="16.53" as="geometry" />
        </mxCell>
        <mxCell id="D1VgD2juVWL0YW8bx5-5-366" value="&lt;span style=&quot;font-weight: normal; font-size: 7px;&quot;&gt;&lt;font style=&quot;font-size: 7px;&quot;&gt;(3)&lt;/font&gt;&lt;/span&gt;" style="text;align=center;html=1;verticalAlign=middle;rounded=0;shadow=0;glass=0;labelBorderColor=none;labelBackgroundColor=none;whiteSpace=wrap;fontStyle=1;container=0;rotation=0;fontSize=7;perimeterSpacing=1;" vertex="1" parent="D1VgD2juVWL0YW8bx5-5-368">
          <mxGeometry x="169" y="77.07650000000001" width="17.25" height="9.19" as="geometry" />
        </mxCell>
        <mxCell id="GqTtiQfWc4EN4lTiexEj-29" value="&lt;font style=&quot;font-size: 20px;&quot;&gt;Body Front View&lt;br&gt;&lt;/font&gt;" style="text;align=center;html=1;verticalAlign=middle;rounded=0;shadow=0;glass=0;labelBorderColor=none;labelBackgroundColor=none;whiteSpace=wrap;fontStyle=1;container=0;" parent="D1VgD2juVWL0YW8bx5-5-368" vertex="1">
          <mxGeometry x="5.997361142110975" width="243.18" height="38.26" as="geometry" />
        </mxCell>
        <mxCell id="D1VgD2juVWL0YW8bx5-5-373" value="" style="group" vertex="1" connectable="0" parent="1">
          <mxGeometry x="477.55809999999997" y="-520.0776999999999" width="257.03999999999996" height="368.53023486238544" as="geometry" />
        </mxCell>
        <mxCell id="D1VgD2juVWL0YW8bx5-5-343" value="" style="ellipse;whiteSpace=wrap;html=1;aspect=fixed;fillColor=none;strokeWidth=1.5;" vertex="1" parent="D1VgD2juVWL0YW8bx5-5-373">
          <mxGeometry y="54.99660000000006" width="257.04" height="257.04" as="geometry" />
        </mxCell>
        <mxCell id="D1VgD2juVWL0YW8bx5-5-344" value="" style="verticalLabelPosition=bottom;verticalAlign=top;html=1;shape=mxgraph.basic.arc;startAngle=0.2612346821505031;endAngle=0.2611227026130817;rotation=90;strokeWidth=1.5;" vertex="1" parent="D1VgD2juVWL0YW8bx5-5-373">
          <mxGeometry x="10" y="64.22660000000008" width="237.04" height="237.04" as="geometry" />
        </mxCell>
        <mxCell id="D1VgD2juVWL0YW8bx5-5-345" value="" style="verticalLabelPosition=bottom;verticalAlign=top;html=1;shape=mxgraph.basic.arc;startAngle=0.2789103092013613;endAngle=0.2786245735243501;rotation=90;strokeWidth=1.5;" vertex="1" parent="D1VgD2juVWL0YW8bx5-5-373">
          <mxGeometry x="23.620000000000005" y="77.85660000000007" width="209.79" height="209.79" as="geometry" />
        </mxCell>
        <mxCell id="D1VgD2juVWL0YW8bx5-5-365" value="&lt;span style=&quot;font-weight: normal; font-size: 7px;&quot;&gt;&lt;font style=&quot;font-size: 7px;&quot;&gt;(4)&lt;/font&gt;&lt;/span&gt;" style="text;align=center;html=1;verticalAlign=middle;rounded=0;shadow=0;glass=0;labelBorderColor=none;labelBackgroundColor=none;whiteSpace=wrap;fontStyle=1;container=0;rotation=0;fontSize=7;perimeterSpacing=1;" vertex="1" parent="D1VgD2juVWL0YW8bx5-5-373">
          <mxGeometry x="168.44190000000003" y="77.07650000000001" width="17.25" height="9.19" as="geometry" />
        </mxCell>
        <mxCell id="D1VgD2juVWL0YW8bx5-5-341" value="&lt;font style=&quot;font-size: 20px;&quot;&gt;Front Cap Back View&lt;br&gt;&lt;/font&gt;" style="text;align=center;html=1;verticalAlign=middle;rounded=0;shadow=0;glass=0;labelBorderColor=none;labelBackgroundColor=none;whiteSpace=wrap;fontStyle=1;container=0;" vertex="1" parent="D1VgD2juVWL0YW8bx5-5-373">
          <mxGeometry x="5.997361142111004" width="243.18" height="38.26" as="geometry" />
        </mxCell>
        <mxCell id="D1VgD2juVWL0YW8bx5-5-346" value="" style="ellipse;whiteSpace=wrap;html=1;aspect=fixed;fontColor=#000000;fillColor=#000000;container=0;" vertex="1" parent="D1VgD2juVWL0YW8bx5-5-373">
          <mxGeometry x="127.25981114211095" y="182.2618000000001" width="2.5105769738052994" height="2.5124900372854664" as="geometry" />
        </mxCell>
        <mxCell id="D1VgD2juVWL0YW8bx5-5-348" value="" style="endArrow=classic;startArrow=classic;html=1;rounded=0;movable=1;resizable=1;rotatable=1;deletable=1;editable=1;locked=0;connectable=1;strokeWidth=1.5;sourcePerimeterSpacing=0;" edge="1" parent="D1VgD2juVWL0YW8bx5-5-373">
          <mxGeometry width="50" height="50" relative="1" as="geometry">
            <mxPoint x="253" y="328.99660000000006" as="sourcePoint" />
            <mxPoint x="3" y="328.99660000000006" as="targetPoint" />
          </mxGeometry>
        </mxCell>
        <mxCell id="D1VgD2juVWL0YW8bx5-5-349" value="&lt;span style=&quot;font-weight: normal;&quot;&gt;&lt;font style=&quot;font-size: 20px;&quot;&gt;23 mm&lt;/font&gt;&lt;/span&gt;" style="text;align=center;html=1;verticalAlign=middle;rounded=0;shadow=0;glass=0;labelBorderColor=none;labelBackgroundColor=none;whiteSpace=wrap;fontStyle=1;direction=east;rotation=0;container=0;" vertex="1" parent="D1VgD2juVWL0YW8bx5-5-373">
          <mxGeometry x="49.004218662394806" y="329.99812477064233" width="159.02420184221066" height="38.53211009174312" as="geometry" />
        </mxCell>
        <mxCell id="D1VgD2juVWL0YW8bx5-5-350" value="" style="endArrow=classic;startArrow=classic;html=1;rounded=0;movable=1;resizable=1;rotatable=1;deletable=1;editable=1;locked=0;connectable=1;strokeWidth=1.5;sourcePerimeterSpacing=0;" edge="1" parent="D1VgD2juVWL0YW8bx5-5-373">
          <mxGeometry width="50" height="50" relative="1" as="geometry">
            <mxPoint x="229.44190000000003" y="183.07769999999994" as="sourcePoint" />
            <mxPoint x="132.44190000000003" y="183.07769999999994" as="targetPoint" />
          </mxGeometry>
        </mxCell>
        <mxCell id="D1VgD2juVWL0YW8bx5-5-351" value="&lt;span style=&quot;font-weight: normal; font-size: 16px;&quot;&gt;&lt;font style=&quot;font-size: 16px;&quot;&gt;10.1 mm&lt;/font&gt;&lt;/span&gt;" style="text;align=center;html=1;verticalAlign=middle;rounded=0;shadow=0;glass=0;labelBorderColor=none;labelBackgroundColor=none;whiteSpace=wrap;fontStyle=1;direction=east;rotation=0;container=0;fontSize=16;" vertex="1" parent="D1VgD2juVWL0YW8bx5-5-373">
          <mxGeometry x="148.44190000000003" y="185.07769999999994" width="82" height="21.53" as="geometry" />
        </mxCell>
        <mxCell id="D1VgD2juVWL0YW8bx5-5-352" value="" style="endArrow=classic;startArrow=classic;html=1;rounded=0;movable=1;resizable=1;rotatable=1;deletable=1;editable=1;locked=0;connectable=1;sourcePerimeterSpacing=0;strokeWidth=0.5;endSize=3;startSize=3;" edge="1" parent="D1VgD2juVWL0YW8bx5-5-373">
          <mxGeometry width="50" height="50" relative="1" as="geometry">
            <mxPoint x="130" y="75.99840000000006" as="sourcePoint" />
            <mxPoint x="130" y="65.99840000000006" as="targetPoint" />
          </mxGeometry>
        </mxCell>
        <mxCell id="D1VgD2juVWL0YW8bx5-5-353" value="0.75 mm" style="text;align=center;html=1;verticalAlign=middle;rounded=0;shadow=0;glass=0;labelBorderColor=none;labelBackgroundColor=none;whiteSpace=wrap;fontStyle=0;container=0;rotation=6.8;fontSize=7;" vertex="1" parent="D1VgD2juVWL0YW8bx5-5-373">
          <mxGeometry x="126" y="66.99840000000006" width="42" height="11.29" as="geometry" />
        </mxCell>
        <mxCell id="D1VgD2juVWL0YW8bx5-5-354" value="" style="ellipse;whiteSpace=wrap;html=1;aspect=fixed;fillColor=none;strokeWidth=1.5;" vertex="1" parent="D1VgD2juVWL0YW8bx5-5-373">
          <mxGeometry x="99.87" y="154.87660000000005" width="57.29" height="57.29" as="geometry" />
        </mxCell>
        <mxCell id="D1VgD2juVWL0YW8bx5-5-358" value="" style="ellipse;whiteSpace=wrap;html=1;aspect=fixed;fillColor=none;strokeWidth=1.5;dashed=1;dashPattern=1 1;" vertex="1" parent="D1VgD2juVWL0YW8bx5-5-373">
          <mxGeometry x="111.43190000000004" y="166.42769999999996" width="34.18" height="34.18" as="geometry" />
        </mxCell>
        <mxCell id="D1VgD2juVWL0YW8bx5-5-359" value="" style="endArrow=classic;startArrow=classic;html=1;rounded=0;movable=1;resizable=1;rotatable=1;deletable=1;editable=1;locked=0;connectable=1;sourcePerimeterSpacing=0;strokeWidth=1;endSize=5;startSize=5;" edge="1" parent="D1VgD2juVWL0YW8bx5-5-373">
          <mxGeometry width="50" height="50" relative="1" as="geometry">
            <mxPoint x="145.44190000000003" y="221.07660000000004" as="sourcePoint" />
            <mxPoint x="111.44190000000003" y="221.07840000000004" as="targetPoint" />
          </mxGeometry>
        </mxCell>
        <mxCell id="D1VgD2juVWL0YW8bx5-5-360" value="&lt;span style=&quot;font-weight: normal; font-size: 14px;&quot;&gt;&lt;font style=&quot;font-size: 14px;&quot;&gt;3.5 mm&lt;/font&gt;&lt;/span&gt;" style="text;align=center;html=1;verticalAlign=middle;rounded=0;shadow=0;glass=0;labelBorderColor=none;labelBackgroundColor=none;whiteSpace=wrap;fontStyle=1;direction=east;rotation=0;container=0;fontSize=14;" vertex="1" parent="D1VgD2juVWL0YW8bx5-5-373">
          <mxGeometry x="100.44190000000003" y="225.07660000000004" width="56" height="16.53" as="geometry" />
        </mxCell>
        <mxCell id="D1VgD2juVWL0YW8bx5-5-361" value="" style="endArrow=classic;startArrow=classic;html=1;rounded=0;movable=1;resizable=1;rotatable=1;deletable=1;editable=1;locked=0;connectable=1;sourcePerimeterSpacing=0;strokeWidth=1;endSize=5;startSize=5;" edge="1" parent="D1VgD2juVWL0YW8bx5-5-373">
          <mxGeometry width="50" height="50" relative="1" as="geometry">
            <mxPoint x="156.44190000000003" y="147.07769999999994" as="sourcePoint" />
            <mxPoint x="101.44190000000003" y="147.07840000000004" as="targetPoint" />
          </mxGeometry>
        </mxCell>
        <mxCell id="D1VgD2juVWL0YW8bx5-5-362" value="&lt;span style=&quot;font-weight: normal; font-size: 14px;&quot;&gt;&lt;font style=&quot;font-size: 14px;&quot;&gt;6.4 mm&lt;/font&gt;&lt;/span&gt;" style="text;align=center;html=1;verticalAlign=middle;rounded=0;shadow=0;glass=0;labelBorderColor=none;labelBackgroundColor=none;whiteSpace=wrap;fontStyle=1;direction=east;rotation=0;container=0;fontSize=14;" vertex="1" parent="D1VgD2juVWL0YW8bx5-5-373">
          <mxGeometry x="100.44190000000003" y="125.07660000000004" width="56" height="16.53" as="geometry" />
        </mxCell>
        <mxCell id="D1VgD2juVWL0YW8bx5-5-363" value="&lt;span style=&quot;font-weight: normal; font-size: 7px;&quot;&gt;&lt;font style=&quot;font-size: 7px;&quot;&gt;(6)&lt;/font&gt;&lt;/span&gt;" style="text;align=center;html=1;verticalAlign=middle;rounded=0;shadow=0;glass=0;labelBorderColor=none;labelBackgroundColor=none;whiteSpace=wrap;fontStyle=1;container=0;rotation=0;fontSize=7;perimeterSpacing=1;" vertex="1" parent="D1VgD2juVWL0YW8bx5-5-373">
          <mxGeometry x="119.44190000000003" y="156.0765" width="17.25" height="9.19" as="geometry" />
        </mxCell>
        <mxCell id="D1VgD2juVWL0YW8bx5-5-371" value="" style="endArrow=none;html=1;rounded=0;dashed=1;" edge="1" parent="D1VgD2juVWL0YW8bx5-5-373">
          <mxGeometry width="50" height="50" relative="1" as="geometry">
            <mxPoint x="111.44190000000003" y="219.07769999999994" as="sourcePoint" />
            <mxPoint x="111.44190000000003" y="190.07769999999994" as="targetPoint" />
          </mxGeometry>
        </mxCell>
        <mxCell id="D1VgD2juVWL0YW8bx5-5-372" value="" style="endArrow=none;html=1;rounded=0;dashed=1;" edge="1" parent="D1VgD2juVWL0YW8bx5-5-373">
          <mxGeometry width="50" height="50" relative="1" as="geometry">
            <mxPoint x="145.44190000000003" y="219.07769999999994" as="sourcePoint" />
            <mxPoint x="145.44190000000003" y="190.07769999999994" as="targetPoint" />
          </mxGeometry>
        </mxCell>
      </root>
    </mxGraphModel>
  </diagram>
</mxfile>
